<svg width="15" height="14" viewBox="0 0 15 14" fill="none" xmlns="http://www.w3.org/2000/svg">
<path d="M8.09993 1.07689C8.15391 1.08084 8.20393 1.08479 8.24606 1.09072C11.2102 1.54688 12.5734 2.95092 12.9506 5.93805C12.9571 5.98874 12.9585 6.05061 12.9591 6.11578C12.9631 6.34946 12.971 6.83524 13.4923 6.84512H13.5081C13.672 6.84512 13.8017 6.79575 13.8951 6.69833C14.0571 6.52916 14.0465 6.27705 14.0367 6.07431C14.0347 6.02428 14.0327 5.97755 14.0327 5.93608C14.0709 2.88181 11.4261 0.111244 8.37442 0.00855722C8.36126 0.00855722 8.34941 0.00855722 8.33756 0.010532C8.32555 0.0120471 8.31345 0.012707 8.30135 0.0125067C8.27042 0.0125067 8.23356 0.00987371 8.1934 0.00724072C8.14601 0.00394949 8.09137 0 8.03542 0C7.54964 0 7.45748 0.34558 7.44563 0.551611C7.41864 1.02752 7.87876 1.0611 8.09993 1.07689ZM12.8077 9.79867C12.7441 9.75033 12.6811 9.70117 12.6188 9.65123C12.2949 9.39056 11.9507 9.15096 11.6183 8.9186L11.4109 8.77378C10.9844 8.47428 10.6013 8.32881 10.2392 8.32881C9.75082 8.32881 9.32559 8.59869 8.97408 9.12989C8.81874 9.36555 8.62982 9.48008 8.39746 9.48008C8.23607 9.47444 8.0777 9.43474 7.93274 9.36357C6.557 8.73955 5.57358 7.78246 5.01143 6.51928C4.73958 5.90843 4.82778 5.50953 5.30567 5.18436C5.57753 5.00005 6.0824 4.6571 6.04751 3.99951C6.0067 3.25372 4.36043 1.00844 3.66663 0.753693C3.37004 0.645505 3.04493 0.644573 2.74772 0.751061C1.95058 1.01897 1.37922 1.49027 1.09289 2.11232C0.816422 2.71395 0.829587 3.42025 1.12843 4.15486C1.99403 6.27902 3.21047 8.13133 4.74484 9.65978C6.24631 11.156 8.09203 12.381 10.23 13.3019C10.4229 13.3848 10.625 13.4302 10.7731 13.4631C10.8231 13.4743 10.8665 13.4842 10.8981 13.4928C10.9155 13.4974 10.9334 13.4999 10.9515 13.5H10.9686C11.9744 13.5 13.1823 12.5811 13.5529 11.5338C13.878 10.6162 13.2843 10.1627 12.8077 9.79867ZM8.54491 3.50385C8.3731 3.5078 8.01436 3.51702 7.88863 3.88169C7.82939 4.05283 7.83663 4.20028 7.9097 4.32205C8.01633 4.49978 8.22105 4.55507 8.40667 4.58535C9.08138 4.69331 9.42828 5.06587 9.49739 5.75901C9.52964 6.08155 9.74752 6.30733 10.026 6.30733C10.0471 6.3073 10.0682 6.30598 10.0892 6.30338C10.4249 6.26388 10.5874 6.01704 10.573 5.57009C10.5782 5.10405 10.3347 4.57482 9.91933 4.15354C9.50331 3.73095 9.00173 3.49266 8.54491 3.50385Z" fill="#FDFFFC"/>
</svg>
