<svg width="41" height="41" viewBox="0 0 41 41" fill="none" xmlns="http://www.w3.org/2000/svg">
<rect x="0.5" y="0.21106" width="40" height="40" rx="20" fill="#FFF6F7"/>
<g clip-path="url(#clip0_701_17045)">
<path d="M23.7513 10.9611C24.9072 10.9771 26.0101 11.1964 27.0399 11.7203C27.9479 12.1851 28.6882 12.835 29.1936 13.7307C29.522 14.3221 29.7374 14.9694 29.8288 15.6396C30.0167 16.9261 29.8267 18.1707 29.4024 19.3878C29.1531 20.1016 28.808 20.771 28.4344 21.4286C27.6731 22.7672 26.6949 23.9273 25.5571 24.9557C24.0974 26.2765 22.4967 27.4325 20.784 28.4029C20.1205 28.7776 19.4325 29.0923 18.6925 29.2847C18.2392 29.4071 17.7711 29.4664 17.3015 29.4607C16.6834 29.4481 16.1998 29.1666 15.8236 28.6924C15.4763 28.2668 15.2974 27.7284 15.3208 27.1796C15.3249 27.0269 15.3469 26.8752 15.3864 26.7277C15.6103 25.9325 15.9144 25.1709 16.3691 24.4763C16.7166 23.9458 17.1308 23.4747 17.6724 23.1377C18.2748 22.7626 18.9296 22.6023 19.6378 22.757C19.8592 22.8089 20.0676 22.9058 20.25 23.0417C20.7162 23.3748 20.6918 23.8976 20.4679 24.2315C20.2762 24.5216 20.0618 24.7961 19.8268 25.0525C19.4287 25.4813 19.0057 25.8868 18.593 26.3016C18.2277 26.6687 17.8844 27.0539 17.6061 27.4928C17.4618 27.7205 17.3288 27.9528 17.289 28.2262C17.2387 28.5691 17.4168 28.8028 17.7629 28.8349C17.9419 28.8495 18.1222 28.8314 18.2947 28.7815C18.8266 28.6344 19.3204 28.3973 19.8055 28.1417C20.5535 27.746 21.2439 27.2623 21.9169 26.7521C22.7326 26.1337 23.5257 25.4887 24.2566 24.7713C25.0892 23.9552 25.8313 23.0682 26.3991 22.0446C26.814 21.2973 27.1195 20.5081 27.2554 19.6615C27.3755 18.916 27.3085 18.1896 26.9631 17.5051C26.7968 17.1668 26.5366 16.8835 26.2137 16.689C26.0645 16.5992 25.9001 16.5379 25.7286 16.5081C25.1045 16.3974 24.5007 16.4882 23.9074 16.6862C23.2889 16.8929 22.7152 17.1947 22.1575 17.5243C20.9471 18.2423 19.7353 18.96 18.5818 19.7684C18.0035 20.1735 17.443 20.6044 16.8762 21.0256C16.3642 21.4063 15.8558 21.7914 15.2963 22.1026C14.8423 22.3611 14.3509 22.5476 13.8397 22.6554C13.2062 22.7839 12.6223 22.6645 12.0859 22.3202C11.5293 21.9629 11.1395 21.4726 10.9684 20.8238C10.8595 20.4141 10.9024 20.008 10.9964 19.6036C11.1336 19.0099 11.3941 18.4721 11.7189 17.9622C12.5221 16.703 13.5321 15.6347 14.7065 14.7215C16.447 13.3682 18.3621 12.3262 20.4337 11.5722C21.4973 11.1832 22.6189 10.9765 23.7513 10.9611Z" fill="#E20010"/>
</g>
<defs>
<clipPath id="clip0_701_17045">
<rect width="19.1917" height="18.5" fill="white" transform="translate(10.9041 10.9611)"/>
</clipPath>
</defs>
</svg>
