<svg width="100" height="99" viewBox="0 0 100 99" fill="none" xmlns="http://www.w3.org/2000/svg">
<g clip-path="url(#clip0_4790_5965)">
<path d="M47.0271 90.3939C47.0262 90.3939 47.0275 90.3939 47.0266 90.3939C34.1902 90.3939 23.3901 89.7915 14.9755 89.0535C9.78864 88.5985 6.54097 83.2289 8.52948 78.4168C14.0453 65.0682 20.8552 51.8819 28.844 39.0931C34.2819 30.3879 39.5314 23.0505 43.9705 17.2775C47.0664 13.2514 53.123 13.2502 56.2191 17.2762C60.6362 23.0203 65.8576 30.3161 71.2684 38.9678C79.2164 51.6764 86.0008 64.7797 91.5075 78.0461C93.5069 82.8625 90.2466 88.24 85.0518 88.6965C72.224 89.824 59.4758 90.3939 47.0271 90.3939Z" fill="#2FB01A"/>
<path d="M51.9087 14.4728C50.4025 14.8688 48.9925 15.8133 47.9499 17.3043C43.8776 23.1283 39.0623 30.5315 34.0744 39.314C26.7457 52.2163 20.4985 65.5196 15.4396 78.9854C13.786 83.3843 16.0777 88.2452 20.0636 89.4604C18.2814 89.3318 16.5855 89.1948 14.9757 89.0542C9.78811 88.5988 6.5418 83.2302 8.52895 78.4165C14.0449 65.0695 20.8558 51.883 28.8446 39.094C34.2827 30.3893 39.5314 23.0504 43.971 17.279C45.9306 14.7299 49.0789 13.7941 51.9087 14.4728Z" fill="#078800"/>
<path d="M85.9331 52.6058V52.0463C85.9331 50.0724 87.4614 48.4357 89.4308 48.3005L95.4881 47.885C97.6578 47.7361 99.4996 49.456 99.4996 51.6307V53.0214C99.4996 55.1961 97.6576 56.916 95.4881 56.7671L89.4308 56.3516C87.4616 56.2166 85.9331 54.5798 85.9331 52.6058Z" fill="#2FB01A"/>
<path d="M81.259 34.6018L80.9792 34.1171C79.9923 32.4076 80.4976 30.2259 82.1353 29.1244L87.1733 25.7359C88.9779 24.5222 91.4328 25.0907 92.5203 26.974L93.2156 28.1784C94.303 30.0618 93.5677 32.4722 91.6144 33.4282L86.1609 36.0969C84.388 36.9647 82.2459 36.3113 81.259 34.6018Z" fill="#2FB01A"/>
<path d="M68.209 21.3462L67.7243 21.0664C66.0148 20.0795 65.3616 17.9374 66.2292 16.1645L68.898 10.711C69.8539 8.75771 72.2643 8.02256 74.1477 9.10982L75.3521 9.80514C77.2354 10.8926 77.8039 13.3475 76.5902 15.1521L73.2018 20.1901C72.1002 21.8278 69.9185 22.3331 68.209 21.3462Z" fill="#2FB01A"/>
<path d="M14.0665 52.6058V52.0463C14.0665 50.0724 12.5382 48.4357 10.5688 48.3005L4.51143 47.885C2.34194 47.7361 0.5 49.456 0.5 51.6307V53.0214C0.5 55.1961 2.34194 56.916 4.51143 56.7671L10.5688 56.3516C12.538 56.2166 14.0665 54.5798 14.0665 52.6058Z" fill="#2FB01A"/>
<path d="M18.741 34.6018L19.0208 34.1171C20.0077 32.4076 19.5025 30.2259 17.8647 29.1244L12.8268 25.7359C11.0221 24.5222 8.56724 25.0907 7.47978 26.974L6.78446 28.1784C5.69701 30.0618 6.43236 32.4722 8.38567 33.4282L13.8392 36.0969C15.6121 36.9647 17.7541 36.3113 18.741 34.6018Z" fill="#2FB01A"/>
<path d="M31.7912 21.3462L32.2759 21.0664C33.9854 20.0795 34.6386 17.9374 33.771 16.1645L31.1022 10.711C30.1463 8.75771 27.7358 8.02256 25.8525 9.10982L24.6481 9.80514C22.7648 10.8926 22.1963 13.3475 23.41 15.1521L26.7984 20.1901C27.9 21.8278 30.0817 22.3331 31.7912 21.3462Z" fill="#2FB01A"/>
<path d="M47.8541 34.8272C49.2985 34.682 50.7429 34.682 52.1873 34.8272C54.0147 35.0111 55.4137 36.5372 55.4811 38.3726C55.7014 44.3762 55.7014 50.3798 55.4811 56.3835C55.4138 58.2188 54.0147 59.7452 52.1873 59.9289C50.7429 60.0741 49.2985 60.0741 47.8541 59.9289C46.0266 59.745 44.6277 58.2188 44.5602 56.3835C44.34 50.3798 44.34 44.3762 44.5602 38.3726C44.6277 36.537 46.0266 35.0109 47.8541 34.8272Z" fill="white"/>
<path d="M47.9587 66.5181C49.3333 66.4523 50.7079 66.4523 52.0825 66.5181C53.9768 66.6087 55.4982 68.1336 55.5836 70.0281C55.667 71.8751 55.667 73.722 55.5836 75.5692C55.4982 77.4637 53.9768 78.9886 52.0825 79.0793C50.7079 79.145 49.3333 79.145 47.9587 79.0793C46.0643 78.9886 44.543 77.4637 44.4575 75.5692C44.3742 73.7222 44.3742 71.8753 44.4575 70.0281C44.543 68.1336 46.0643 66.6087 47.9587 66.5181Z" fill="white"/>
</g>
<defs>
<clipPath id="clip0_4790_5965">
<rect width="99" height="99" fill="white" transform="translate(0.5)"/>
</clipPath>
</defs>
</svg>
