<svg width="" height="" viewBox="0 0 24 24" fill="none" xmlns="http://www.w3.org/2000/svg">
<path d="M10.3281 15.4H15.9141C16.1793 15.4 16.4336 15.5054 16.6212 15.6929C16.8087 15.8804 16.9141 16.1348 16.9141 16.4C16.9141 16.6652 16.8087 16.9196 16.6212 17.1071C16.4336 17.2946 16.1793 17.4 15.9141 17.4H7.91407C7.78263 17.4004 7.65242 17.3748 7.53092 17.3247C7.40941 17.2746 7.29901 17.2009 7.20608 17.108C7.11314 17.0151 7.0395 16.9047 6.98938 16.7832C6.93927 16.6617 6.91367 16.5314 6.91407 16.4V8.40001C6.91407 8.13479 7.01942 7.88044 7.20696 7.6929C7.3945 7.50536 7.64885 7.40001 7.91407 7.40001C8.17928 7.40001 8.43364 7.50536 8.62117 7.6929C8.80871 7.88044 8.91407 8.13479 8.91407 8.40001V13.985L15.6921 7.20701C15.7849 7.1141 15.8951 7.04038 16.0165 6.99007C16.1378 6.93977 16.2679 6.91385 16.3992 6.9138C16.5306 6.91376 16.6606 6.93958 16.782 6.9898C16.9034 7.04003 17.0137 7.11366 17.1066 7.20651C17.1995 7.29935 17.2732 7.40959 17.3235 7.53092C17.3738 7.65225 17.3997 7.7823 17.3998 7.91365C17.3998 8.045 17.374 8.17507 17.3238 8.29644C17.2735 8.41781 17.1999 8.5281 17.1071 8.62101L10.3281 15.4Z" fill=""/>
</svg>
