<svg width="6" height="6" viewBox="0 0 6 6" fill="none" xmlns="http://www.w3.org/2000/svg">
<path d="M2.64941 5.63867C2.3125 5.63867 2.1001 5.41895 2.10742 5.08936C2.10742 5.07471 2.10742 5.06738 2.10742 5.05273L2.20996 3.71973L1.00879 4.54004C0.913574 4.61328 0.796387 4.6499 0.664551 4.6499C0.400879 4.6499 0.151855 4.4375 0.151855 4.11523C0.151855 3.89551 0.269043 3.7417 0.48877 3.63184L1.77783 2.9873L0.48877 2.33545C0.269043 2.22559 0.151855 2.07178 0.151855 1.85938C0.151855 1.53711 0.400879 1.32471 0.664551 1.32471C0.796387 1.32471 0.913574 1.36133 1.00879 1.43457L2.20996 2.24023L2.11475 0.855957C2.10742 0.841309 2.10742 0.82666 2.10742 0.819336C2.1001 0.489746 2.3125 0.27002 2.64941 0.27002C2.97168 0.27002 3.16943 0.482422 3.16211 0.812012C3.16211 0.82666 3.16211 0.841309 3.15479 0.855957L3.05957 2.24023L4.24609 1.43457C4.34863 1.36133 4.4585 1.32471 4.59033 1.32471C4.854 1.32471 5.10303 1.53711 5.10303 1.85938C5.10303 2.07178 4.99316 2.23291 4.77344 2.33545L3.47705 2.9873L4.77344 3.63184C4.99316 3.7417 5.10303 3.90283 5.10303 4.11523C5.10303 4.4375 4.854 4.6499 4.59033 4.6499C4.4585 4.6499 4.34863 4.61328 4.24609 4.54004L3.06689 3.71973L3.16211 5.05273C3.16211 5.06738 3.16211 5.07471 3.16211 5.08936C3.16943 5.42627 2.97168 5.63867 2.64941 5.63867Z" fill="#141011"/>
</svg>
