<svg width="18" height="18" viewBox="0 0 18 18" fill="none" xmlns="http://www.w3.org/2000/svg">
<path d="M7.60297 0.344832C8.20356 -0.114944 9.03834 -0.114944 9.63892 0.344832L16.7683 5.79462C17.6764 6.48859 17.1893 7.93689 16.0485 7.94264H1.19197C0.0525851 7.93689 -0.435927 6.48859 0.473568 5.79462L7.60297 0.344832ZM8.62023 5.42823C8.90603 5.42823 9.18012 5.3147 9.38221 5.11261C9.5843 4.91052 9.69783 4.63643 9.69783 4.35063C9.69783 4.06484 9.5843 3.79074 9.38221 3.58865C9.18012 3.38656 8.90603 3.27303 8.62023 3.27303C8.33443 3.27303 8.06034 3.38656 7.85825 3.58865C7.65616 3.79074 7.54263 4.06484 7.54263 4.35063C7.54263 4.63643 7.65616 4.91052 7.85825 5.11261C8.06034 5.3147 8.33443 5.42823 8.62023 5.42823Z" fill="white"/>
<path d="M2.15527 9.37988V13.6903H4.31047V9.37988H2.15527Z" fill="white"/>
<path d="M5.74707 9.37988V13.6903H7.90227V9.37988H5.74707Z" fill="white"/>
<path d="M9.33887 9.37988V13.6903H11.4941V9.37988H9.33887Z" fill="white"/>
<path d="M12.9316 9.37988V13.6903H15.0868V9.37988H12.9316Z" fill="white"/>
<path d="M0 16.923C0 15.9316 0.804608 15.127 1.796 15.127H15.4456C16.437 15.127 17.2416 15.9316 17.2416 16.923V17.2822C17.2416 17.4727 17.1659 17.6554 17.0312 17.7901C16.8965 17.9249 16.7137 18.0006 16.5232 18.0006H0.7184C0.527869 18.0006 0.345141 17.9249 0.210415 17.7901C0.0756885 17.6554 0 17.4727 0 17.2822V16.923Z" fill="white"/>
</svg>
