<svg width="" height="" viewBox="0 0 16 16" fill="none" xmlns="http://www.w3.org/2000/svg">
<path d="M6 2.66683V2.00016C6 1.82335 6.07024 1.65378 6.19526 1.52876C6.32029 1.40373 6.48986 1.3335 6.66667 1.3335H9.33333C9.51014 1.3335 9.67971 1.40373 9.80474 1.52876C9.92976 1.65378 10 1.82335 10 2.00016V2.66683H12.6667C13.0203 2.66683 13.3594 2.80731 13.6095 3.05735C13.8595 3.3074 14 3.64654 14 4.00016V4.66683C14 5.02045 13.8595 5.35959 13.6095 5.60964C13.3594 5.85969 13.0203 6.00016 12.6667 6.00016H12.578L12.1247 12.8002C12.0908 13.3063 11.8659 13.7808 11.4955 14.1273C11.125 14.4739 10.6366 14.6668 10.1293 14.6668H5.884C5.37712 14.6668 4.88914 14.4743 4.51874 14.1283C4.14834 13.7823 3.92313 13.3085 3.88867 12.8028L3.42467 6.00016H3.33333C2.97971 6.00016 2.64057 5.85969 2.39052 5.60964C2.14048 5.35959 2 5.02045 2 4.66683V4.00016C2 3.64654 2.14048 3.3074 2.39052 3.05735C2.64057 2.80731 2.97971 2.66683 3.33333 2.66683H6ZM12.6667 4.00016H3.33333V4.66683H12.6667V4.00016ZM4.76067 6.00016L5.21867 12.7122C5.23016 12.8808 5.30526 13.0387 5.42877 13.1541C5.55229 13.2694 5.715 13.3335 5.884 13.3335H10.1293C10.2985 13.3335 10.4614 13.2692 10.585 13.1536C10.7085 13.038 10.7835 12.8797 10.7947 12.7108L11.2413 6.00016H4.76133H4.76067ZM6.66667 6.66683C6.84348 6.66683 7.01305 6.73707 7.13807 6.86209C7.2631 6.98712 7.33333 7.15669 7.33333 7.3335V12.0002C7.33333 12.177 7.2631 12.3465 7.13807 12.4716C7.01305 12.5966 6.84348 12.6668 6.66667 12.6668C6.48986 12.6668 6.32029 12.5966 6.19526 12.4716C6.07024 12.3465 6 12.177 6 12.0002V7.3335C6 7.15669 6.07024 6.98712 6.19526 6.86209C6.32029 6.73707 6.48986 6.66683 6.66667 6.66683ZM9.33333 6.66683C9.51014 6.66683 9.67971 6.73707 9.80474 6.86209C9.92976 6.98712 10 7.15669 10 7.3335V12.0002C10 12.177 9.92976 12.3465 9.80474 12.4716C9.67971 12.5966 9.51014 12.6668 9.33333 12.6668C9.15652 12.6668 8.98695 12.5966 8.86193 12.4716C8.73691 12.3465 8.66667 12.177 8.66667 12.0002V7.3335C8.66667 7.15669 8.73691 6.98712 8.86193 6.86209C8.98695 6.73707 9.15652 6.66683 9.33333 6.66683Z" fill="#EF2A5A"/>
</svg>
