<svg width="20" height="20" viewBox="0 0 20 20" fill="none" xmlns="http://www.w3.org/2000/svg">
<path d="M18.3332 7.49984H1.6665V5.83317C1.6665 5.39114 1.8421 4.96722 2.15466 4.65466C2.46722 4.3421 2.89114 4.1665 3.33317 4.1665H16.6665C17.1085 4.1665 17.5325 4.3421 17.845 4.65466C18.1576 4.96722 18.3332 5.39114 18.3332 5.83317V7.49984ZM18.3332 9.99984V14.1665C18.3332 14.6085 18.1576 15.0325 17.845 15.345C17.5325 15.6576 17.1085 15.8332 16.6665 15.8332H3.33317C2.89114 15.8332 2.46722 15.6576 2.15466 15.345C1.8421 15.0325 1.6665 14.6085 1.6665 14.1665V9.99984H18.3332ZM4.99984 11.6665C4.77882 11.6665 4.56686 11.7543 4.41058 11.9106C4.2543 12.0669 4.1665 12.2788 4.1665 12.4998C4.1665 12.7209 4.2543 12.9328 4.41058 13.0891C4.56686 13.2454 4.77882 13.3332 4.99984 13.3332H5.83317C6.05418 13.3332 6.26615 13.2454 6.42243 13.0891C6.57871 12.9328 6.6665 12.7209 6.6665 12.4998C6.6665 12.2788 6.57871 12.0669 6.42243 11.9106C6.26615 11.7543 6.05418 11.6665 5.83317 11.6665H4.99984ZM9.1665 11.6665C8.94549 11.6665 8.73353 11.7543 8.57725 11.9106C8.42097 12.0669 8.33317 12.2788 8.33317 12.4998C8.33317 12.7209 8.42097 12.9328 8.57725 13.0891C8.73353 13.2454 8.94549 13.3332 9.1665 13.3332H13.3332C13.5542 13.3332 13.7661 13.2454 13.9224 13.0891C14.0787 12.9328 14.1665 12.7209 14.1665 12.4998C14.1665 12.2788 14.0787 12.0669 13.9224 11.9106C13.7661 11.7543 13.5542 11.6665 13.3332 11.6665H9.1665Z" fill="white"/>
</svg>
