<svg width="14" height="14" viewBox="0 0 14 14" fill="none" xmlns="http://www.w3.org/2000/svg">
<g clip-path="url(#clip0_524_7636)">
<path d="M8.19559 3.50008C8.76536 3.61124 9.28899 3.8899 9.69947 4.30038C10.1099 4.71086 10.3886 5.23449 10.4998 5.80425M8.19559 1.16675C9.37934 1.29825 10.4832 1.82835 11.3259 2.67C12.1686 3.51165 12.7001 4.61484 12.8331 5.79841M5.9655 8.08687C5.26458 7.38595 4.71112 6.59341 4.30512 5.7478C4.2702 5.67506 4.25274 5.63869 4.23932 5.59267C4.19165 5.42914 4.22589 5.22832 4.32507 5.08982C4.35297 5.05084 4.38631 5.0175 4.453 4.95082C4.65693 4.74688 4.7589 4.64491 4.82557 4.54238C5.07698 4.15569 5.07698 3.65719 4.82557 3.2705C4.7589 3.16796 4.65693 3.06599 4.453 2.86206L4.33932 2.74838C4.02931 2.43838 3.87431 2.28337 3.70784 2.19917C3.37676 2.03171 2.98577 2.03171 2.6547 2.19917C2.48822 2.28337 2.33322 2.43838 2.02321 2.74838L1.93126 2.84034C1.62231 3.14928 1.46784 3.30376 1.34986 3.51378C1.21895 3.74682 1.12482 4.10877 1.12562 4.37607C1.12633 4.61696 1.17306 4.78159 1.26651 5.11085C1.76875 6.88033 2.71636 8.55004 4.10934 9.94303C5.50233 11.336 7.17204 12.2836 8.94152 12.7859C9.27078 12.8793 9.43541 12.926 9.6763 12.9268C9.9436 12.9276 10.3056 12.8334 10.5386 12.7025C10.7486 12.5845 10.9031 12.4301 11.212 12.1211L11.304 12.0292C11.614 11.7192 11.769 11.5641 11.8532 11.3977C12.0207 11.0666 12.0207 10.6756 11.8532 10.3445C11.769 10.1781 11.614 10.0231 11.304 9.71305L11.1903 9.59937C10.9864 9.39544 10.8844 9.29347 10.7819 9.2268C10.3952 8.97539 9.89668 8.97539 9.50999 9.2268C9.40746 9.29347 9.30549 9.39544 9.10155 9.59937C9.03487 9.66606 9.00153 9.6994 8.96255 9.7273C8.82405 9.82648 8.62324 9.86072 8.4597 9.81305C8.41368 9.79963 8.37731 9.78217 8.30457 9.74725C7.45896 9.34125 6.66642 8.78779 5.9655 8.08687Z" stroke="" stroke-width="1.16667" stroke-linecap="round" stroke-linejoin="round"/>
</g>
<defs>
<clipPath id="clip0_524_7636">
<rect width="14" height="14" fill=""/>
</clipPath>
</defs>
</svg>
