<svg width="10" height="12" viewBox="0 0 10 12" fill="none" xmlns="http://www.w3.org/2000/svg">
<path d="M7.33433 10.489V11.3484C7.33433 11.6332 7.11847 11.864 6.85219 11.864H1.3879C1.12162 11.864 0.905762 11.6332 0.905762 11.3484V3.44214C0.905762 3.15736 1.12162 2.92651 1.3879 2.92651H2.83433V9.28589C2.83433 9.9493 3.339 10.489 3.95933 10.489H7.33433ZM7.33433 3.09839V0.864014H3.95933C3.69305 0.864014 3.47719 1.09486 3.47719 1.37964V9.28589C3.47719 9.57066 3.69305 9.80151 3.95933 9.80151H9.42362C9.6899 9.80151 9.90576 9.57066 9.90576 9.28589V3.61401H7.81648C7.5513 3.61401 7.33433 3.38198 7.33433 3.09839ZM9.76455 2.43175L8.43983 1.01503C8.34941 0.918335 8.22678 0.864014 8.09891 0.864014H7.97719V2.92651H9.90576V2.79634C9.90576 2.65959 9.85497 2.52845 9.76455 2.43175Z" fill="#2FB01A"/>
</svg>
