<svg width="21" height="20" viewBox="0 0 21 20" fill="none" xmlns="http://www.w3.org/2000/svg">
<path d="M10.5382 15.8267C10.3172 15.8267 10.1052 15.7389 9.94895 15.5826C9.79267 15.4263 9.70487 15.2143 9.70487 14.9933C9.70487 14.7723 9.79267 14.5604 9.94895 14.4041C10.1052 14.2478 10.3172 14.16 10.5382 14.16C10.7592 14.16 10.9712 14.2478 11.1275 14.4041C11.2837 14.5604 11.3715 14.7723 11.3715 14.9933C11.3715 15.2143 11.2837 15.4263 11.1275 15.5826C10.9712 15.7389 10.7592 15.8267 10.5382 15.8267ZM8.78321 13.7C8.68042 13.8906 8.50748 14.0337 8.301 14.099C8.09452 14.1643 7.87074 14.1467 7.67705 14.0498C7.48336 13.953 7.33497 13.7845 7.26332 13.5802C7.19168 13.3758 7.20239 13.1516 7.29321 12.955C7.59483 12.3527 8.05812 11.8463 8.63122 11.4923C9.20432 11.1384 9.86462 10.9509 10.5382 10.9509C11.2118 10.9509 11.8721 11.1384 12.4452 11.4923C13.0183 11.8463 13.4816 12.3527 13.7832 12.955C13.8362 13.0532 13.8689 13.1611 13.8794 13.2722C13.8899 13.3833 13.8779 13.4954 13.8443 13.6018C13.8106 13.7082 13.7559 13.8068 13.6835 13.8917C13.611 13.9765 13.5222 14.046 13.4224 14.0959C13.3226 14.1458 13.2138 14.1752 13.1024 14.1822C12.991 14.1893 12.8793 14.1739 12.774 14.1369C12.6687 14.1 12.5719 14.0423 12.4893 13.9673C12.4067 13.8922 12.34 13.8013 12.2932 13.7C12.1306 13.3737 11.8802 13.0991 11.5702 12.9073C11.2602 12.7154 10.9028 12.6137 10.5382 12.6137C10.1736 12.6137 9.81623 12.7154 9.50622 12.9073C9.1962 13.0991 8.94582 13.3737 8.78321 13.7ZM6.20488 11.3292C6.13921 11.4167 6.05695 11.4905 5.96279 11.5462C5.86862 11.602 5.76439 11.6386 5.65606 11.6541C5.43727 11.6854 5.21502 11.6284 5.03821 11.4958C4.8614 11.3632 4.74451 11.1658 4.71325 10.947C4.69777 10.8387 4.70379 10.7284 4.73095 10.6223C4.75811 10.5163 4.80588 10.4167 4.87154 10.3292C5.53164 9.44989 6.3873 8.73629 7.37082 8.24482C8.35434 7.75335 9.43873 7.4975 10.5382 7.4975C11.6377 7.4975 12.7221 7.75335 13.7056 8.24482C14.6891 8.73629 15.5448 9.44989 16.2049 10.3292C16.2705 10.4167 16.3183 10.5163 16.3455 10.6223C16.3726 10.7284 16.3786 10.8387 16.3632 10.947C16.3477 11.0554 16.311 11.1596 16.2553 11.2537C16.1995 11.3479 16.1258 11.4302 16.0382 11.4958C15.9507 11.5615 15.851 11.6093 15.745 11.6364C15.639 11.6636 15.5287 11.6696 15.4204 11.6541C15.312 11.6386 15.2078 11.602 15.1136 11.5462C15.0195 11.4905 14.9372 11.4167 14.8715 11.3292C14.3667 10.6569 13.7123 10.1113 12.9602 9.73554C12.2082 9.35978 11.3789 9.16416 10.5382 9.16416C9.69747 9.16416 8.86827 9.35978 8.11617 9.73554C7.36408 10.1113 6.70973 10.6569 6.20488 11.3292ZM3.65738 8.8875C3.5071 9.04128 3.3032 9.13103 3.08829 9.13798C2.87338 9.14493 2.66411 9.06854 2.50421 8.92478C2.34432 8.78102 2.24618 8.58103 2.2303 8.3666C2.21443 8.15217 2.28205 7.9399 2.41904 7.77417C6.45488 3.29333 13.3607 2.93 17.8457 6.96333C18.1307 7.21917 18.4015 7.49 18.6574 7.77417C18.7306 7.85548 18.7871 7.95041 18.8236 8.05355C18.8601 8.15669 18.876 8.26601 18.8702 8.37527C18.8645 8.48453 18.8373 8.5916 18.7902 8.69035C18.7431 8.78911 18.677 8.87762 18.5957 8.95083C18.5144 9.02404 18.4195 9.08052 18.3163 9.11705C18.2132 9.15357 18.1039 9.16942 17.9946 9.16369C17.8853 9.15797 17.7783 9.13078 17.6795 9.08367C17.5808 9.03657 17.4923 8.97048 17.419 8.88916C17.2021 8.64759 16.9723 8.41782 16.7307 8.20083C12.9307 4.78333 7.07738 5.08916 3.65738 8.8875Z" fill="#FDFFFC"/>
</svg>
