<svg width="38" height="39" viewBox="0 0 38 39" fill="none" xmlns="http://www.w3.org/2000/svg">
<rect y="0.5" width="38" height="38" rx="19" fill="#E8F4FE"/>
<g clip-path="url(#clip0_246_8378)">
<path d="M33.6365 18.2004H32.9936C32.8788 18.2004 32.764 18.3155 32.764 18.3155L30.3303 21.517C30.2844 21.5861 30.2155 21.5861 30.1696 21.517L27.8966 18.3155C27.8966 18.3155 27.8048 18.2004 27.6441 18.2004H23.3277C23.2589 18.2004 23.19 18.1313 23.19 18.0622V17.0027C23.19 16.8415 23.0752 16.7263 22.9145 16.7263H16.2792C15.246 16.7724 14.8098 16.8645 14.3506 17.1409C13.9144 17.3942 13.6848 17.7167 13.6848 18.1082C13.6848 18.5228 14.0292 18.9374 14.695 19.3289C14.8787 19.4441 15.4986 19.7435 16.5547 20.2272C17.2205 20.5496 17.5879 20.803 17.5649 21.0564C17.519 21.4709 17.1517 21.6091 16.2792 21.6091H12.2613C12.1695 21.6091 12.0777 21.5861 12.0777 21.517C12.0777 21.4709 12.1006 21.4479 12.1465 21.4249C13.0419 20.8721 13.3404 20.1581 13.3404 19.4902C13.3404 18.2234 12.3072 16.7263 8.17456 16.7263H4.56995C4.40923 16.7263 4.29443 16.8415 4.29443 17.0027V21.9316C4.29443 22.0928 4.40923 22.208 4.56995 22.208H8.17456C8.31232 22.208 8.45008 22.208 8.56487 22.208H17.5879C18.4144 22.208 19.0573 22.0698 19.5165 21.7934C19.9527 21.54 20.1593 21.2176 20.1593 20.826C20.1593 20.4115 19.815 20.0199 19.1491 19.6053C18.9884 19.4902 18.3456 19.1908 17.2894 18.7071C16.6236 18.4077 16.2792 18.1543 16.2792 17.947C16.2792 17.5324 16.7154 17.3252 17.5879 17.3252H20.6415C20.7104 17.3252 20.7792 17.3942 20.7792 17.4633V21.0333C20.7792 21.5631 21.1236 22.1849 22.1798 22.1849H30.5599C30.7666 22.1849 30.8584 22.0467 30.8584 22.0467L33.7283 18.2695C33.7054 18.2925 33.7513 18.2004 33.6365 18.2004ZM7.62354 21.6091H6.72812C6.65925 21.6091 6.59037 21.54 6.59037 21.4709V17.4403C6.59037 17.3712 6.65925 17.3021 6.72812 17.3021H7.62354C9.82764 17.3021 10.9756 18.2004 10.9756 19.4441C10.9756 20.7109 9.80468 21.6091 7.62354 21.6091ZM27.7359 21.6322H23.8558C23.3277 21.6322 23.19 21.4709 23.19 21.0564V18.8913C23.19 18.8222 23.2589 18.7762 23.3277 18.7762H25.5778C25.6466 18.7762 25.7385 18.8222 25.7844 18.8683L27.8048 21.517C27.8278 21.5861 27.8048 21.6322 27.7359 21.6322Z" fill="#006CD0"/>
</g>
<defs>
<clipPath id="clip0_246_8378">
<rect width="29.4569" height="5.5968" fill="white" transform="translate(4.27148 16.7017)"/>
</clipPath>
</defs>
</svg>
