<svg width="21" height="21" viewBox="0 0 21 21" fill="none" xmlns="http://www.w3.org/2000/svg">
<path d="M10.5 2.1875C7.16625 2.1875 4.8125 4.58763 4.8125 7.54163C4.8125 8.88563 5.3655 9.79212 6.05938 10.6566C6.20988 10.8447 6.363 11.0259 6.5205 11.2122L6.6045 11.3102C6.78825 11.529 6.97813 11.7548 7.15575 11.9875C7.50925 12.4521 7.84088 12.9745 8.02638 13.5923C8.07181 13.7575 8.05083 13.9339 7.96792 14.0838C7.88501 14.2338 7.74674 14.3453 7.58267 14.3947C7.4186 14.444 7.24172 14.4273 7.08985 14.348C6.93797 14.2687 6.82313 14.1331 6.76988 13.9702C6.64913 13.5677 6.4225 13.1915 6.111 12.7829C5.94657 12.5703 5.77677 12.362 5.60175 12.1581L5.52125 12.0619C5.36375 11.8764 5.1975 11.6804 5.03563 11.4783C4.26125 10.514 3.5 9.31962 3.5 7.54075C3.5 3.81763 6.48812 0.875 10.5 0.875C14.5119 0.875 17.5 3.81675 17.5 7.54163C17.5 9.31963 16.7388 10.514 15.9644 11.4791C15.8025 11.6804 15.6363 11.8764 15.4788 12.0627L15.3982 12.1581C15.2145 12.3751 15.0439 12.579 14.889 12.7829C14.5775 13.1915 14.3509 13.5686 14.2301 13.9702C14.1743 14.13 14.0589 14.2621 13.9081 14.3389C13.7573 14.4158 13.5827 14.4315 13.4206 14.3827C13.2585 14.334 13.1215 14.2246 13.0381 14.0774C12.9546 13.9301 12.9312 13.7563 12.9727 13.5923C13.1591 12.9745 13.4908 12.4521 13.8451 11.9875C14.0219 11.7548 14.2117 11.529 14.3964 11.3102L14.4795 11.2122C14.637 11.0259 14.7901 10.8448 14.9406 10.6575C15.6345 9.79125 16.1875 8.88563 16.1875 7.54163C16.1875 4.58763 13.8337 2.1875 10.5 2.1875ZM7.65625 15.75H13.3438C13.5178 15.75 13.6847 15.8191 13.8078 15.9422C13.9309 16.0653 14 16.2322 14 16.4062C14 16.5803 13.9309 16.7472 13.8078 16.8703C13.6847 16.9934 13.5178 17.0625 13.3438 17.0625H7.65625C7.4822 17.0625 7.31528 16.9934 7.19221 16.8703C7.06914 16.7472 7 16.5803 7 16.4062C7 16.2322 7.06914 16.0653 7.19221 15.9422C7.31528 15.8191 7.4822 15.75 7.65625 15.75ZM8.3125 19.0312C8.3125 18.8572 8.38164 18.6903 8.50471 18.5672C8.62778 18.4441 8.7947 18.375 8.96875 18.375H12.0312C12.2053 18.375 12.3722 18.4441 12.4953 18.5672C12.6184 18.6903 12.6875 18.8572 12.6875 19.0312C12.6875 19.2053 12.6184 19.3722 12.4953 19.4953C12.3722 19.6184 12.2053 19.6875 12.0312 19.6875H8.96875C8.7947 19.6875 8.62778 19.6184 8.50471 19.4953C8.38164 19.3722 8.3125 19.2053 8.3125 19.0312Z" fill="white"/>
</svg>
