<svg width="15" height="15" viewBox="0 0 15 15" fill="none" xmlns="http://www.w3.org/2000/svg">
<path d="M8.58998 1.64609L13.295 4.70435C13.4612 4.81242 13.5444 4.86645 13.6046 4.93852C13.6579 5.00232 13.698 5.07612 13.7224 5.15559C13.75 5.24536 13.75 5.34451 13.75 5.5428V10.1251C13.75 11.1752 13.75 11.7003 13.5456 12.1013C13.3659 12.4541 13.079 12.741 12.7262 12.9207C12.3251 13.1251 11.8001 13.1251 10.75 13.1251H4.25C3.1999 13.1251 2.67485 13.1251 2.27377 12.9207C1.92096 12.741 1.63413 12.4541 1.45436 12.1013C1.25 11.7003 1.25 11.1752 1.25 10.1251V5.5428C1.25 5.34451 1.25 5.24536 1.27761 5.15559C1.30204 5.07612 1.34209 5.00232 1.3954 4.93852C1.45563 4.86645 1.53876 4.81242 1.70501 4.70435L6.41002 1.64609M8.58998 1.64609C8.19545 1.38965 7.99819 1.26143 7.78564 1.21154C7.59777 1.16744 7.40223 1.16744 7.21436 1.21154C7.00181 1.26143 6.80455 1.38965 6.41002 1.64609M8.58998 1.64609L13.105 4.58089C13.32 4.72061 13.4275 4.79047 13.4647 4.87906C13.4972 4.95648 13.4972 5.04374 13.4647 5.12116C13.4275 5.20975 13.32 5.27961 13.105 5.41933L8.58998 8.35412C8.19545 8.61056 7.99818 8.73879 7.78564 8.78868C7.59777 8.83278 7.40223 8.83278 7.21436 8.78868C7.00181 8.73879 6.80455 8.61057 6.41002 8.35412L1.89496 5.41933C1.68 5.27961 1.57253 5.20975 1.5353 5.12116C1.50277 5.04374 1.50277 4.95648 1.5353 4.87906C1.57253 4.79047 1.68 4.72061 1.89496 4.58089L6.41002 1.64609" stroke="white" stroke-width="1.33333" stroke-linecap="round" stroke-linejoin="round"/>
</svg>
