<svg width="22" height="22" viewBox="0 0 22 22" fill="none" xmlns="http://www.w3.org/2000/svg">
<path d="M10.9997 20.1668C5.93692 20.1668 1.83301 16.0629 1.83301 11.0002C1.83301 5.93741 5.93692 1.8335 10.9997 1.8335C16.0624 1.8335 20.1663 5.93741 20.1663 11.0002C20.1663 16.0629 16.0624 20.1668 10.9997 20.1668ZM10.9997 18.3335C12.9446 18.3335 14.8099 17.5609 16.1851 16.1856C17.5604 14.8103 18.333 12.9451 18.333 11.0002C18.333 9.05524 17.5604 7.18998 16.1851 5.81471C14.8099 4.43945 12.9446 3.66683 10.9997 3.66683C9.05475 3.66683 7.18949 4.43945 5.81422 5.81471C4.43896 7.18998 3.66634 9.05524 3.66634 11.0002C3.66634 12.9451 4.43896 14.8103 5.81422 16.1856C7.18949 17.5609 9.05475 18.3335 10.9997 18.3335ZM10.9997 9.16683C11.2428 9.16683 11.4759 9.26341 11.6479 9.43532C11.8198 9.60722 11.9163 9.84038 11.9163 10.0835V14.6668C11.9163 14.9099 11.8198 15.1431 11.6479 15.315C11.4759 15.4869 11.2428 15.5835 10.9997 15.5835C10.7566 15.5835 10.5234 15.4869 10.3515 15.315C10.1796 15.1431 10.083 14.9099 10.083 14.6668V10.0835C10.083 9.84038 10.1796 9.60722 10.3515 9.43532C10.5234 9.26341 10.7566 9.16683 10.9997 9.16683ZM10.9997 8.25016C10.7566 8.25016 10.5234 8.15359 10.3515 7.98168C10.1796 7.80977 10.083 7.57661 10.083 7.3335C10.083 7.09038 10.1796 6.85722 10.3515 6.68532C10.5234 6.51341 10.7566 6.41683 10.9997 6.41683C11.2428 6.41683 11.4759 6.51341 11.6479 6.68532C11.8198 6.85722 11.9163 7.09038 11.9163 7.3335C11.9163 7.57661 11.8198 7.80977 11.6479 7.98168C11.4759 8.15359 11.2428 8.25016 10.9997 8.25016Z" fill="#EF2A5A"/>
</svg>
