<svg width="24" height="24" viewBox="0 0 24 24" fill="none" xmlns="http://www.w3.org/2000/svg">
<path d="M12 18C6.958 18.007 2 15.314 2 12C2 8.68596 6.984 5.98296 12 5.99996C17.016 6.01696 22 8.68596 22 12C22 15.314 17.042 17.993 12 18ZM12 16C13.0609 16 14.0783 15.5785 14.8284 14.8284C15.5786 14.0782 16 13.0608 16 12C16 10.9391 15.5786 9.92168 14.8284 9.17153C14.0783 8.42139 13.0609 7.99996 12 7.99996C10.9391 7.99996 9.92172 8.42139 9.17157 9.17153C8.42143 9.92168 8 10.9391 8 12C8 13.0608 8.42143 14.0782 9.17157 14.8284C9.92172 15.5785 10.9391 16 12 16ZM12 14C11.4696 14 10.9609 13.7892 10.5858 13.4142C10.2107 13.0391 10 12.5304 10 12C10 11.4695 10.2107 10.9608 10.5858 10.5857C10.9609 10.2107 11.4696 9.99996 12 9.99996C12.5304 9.99996 13.0391 10.2107 13.4142 10.5857C13.7893 10.9608 14 11.4695 14 12C14 12.5304 13.7893 13.0391 13.4142 13.4142C13.0391 13.7892 12.5304 14 12 14Z" fill="#00A353"/>
</svg>
