<svg width="" height="" viewBox="0 0 21 21" fill="none" xmlns="http://www.w3.org/2000/svg">
<path d="M6.18293 1H5.97561C4.23398 1 3.36317 1 2.69796 1.33894C2.11282 1.63709 1.63709 2.11282 1.33894 2.69796C1 3.36317 1 4.23398 1 5.97561V6.18293M6.18293 19.6585H5.97561C4.23398 19.6585 3.36317 19.6585 2.69796 19.3196C2.11282 19.0215 1.63709 18.5457 1.33894 17.9606C1 17.2954 1 16.4246 1 14.6829V14.4756M19.6585 6.18293V5.97561C19.6585 4.23398 19.6585 3.36317 19.3196 2.69796C19.0215 2.11282 18.5457 1.63709 17.9606 1.33894C17.2954 1 16.4246 1 14.6829 1H14.4756M19.6585 14.4756V14.6829C19.6585 16.4246 19.6585 17.2954 19.3196 17.9606C19.0215 18.5457 18.5457 19.0215 17.9606 19.3196C17.2954 19.6585 16.4246 19.6585 14.6829 19.6585H14.4756M5.66463 6.18293V7.73781M14.9939 6.18293V7.73781M9.29268 10.9513C10.122 10.9513 10.8476 10.2257 10.8476 9.39644V6.18293M13.6465 13.6463C11.7807 15.5121 8.77459 15.5121 6.90874 13.6463" stroke="" stroke-width="1.3" stroke-linecap="round" stroke-linejoin="round"/>
</svg>
