<svg width="16" height="16" viewBox="0 0 16 16" fill="none" xmlns="http://www.w3.org/2000/svg">
<path d="M9.50602 10.0971C9.30385 9.79395 8.88031 9.73951 8.60804 9.9817L7.09221 11.3301C6.93026 11.4742 6.8586 11.6944 6.90475 11.9061L7.11225 12.8584C7.15574 13.058 7.09471 13.266 6.95027 13.4104L6.05111 14.3096C5.78006 14.5806 5.32782 14.5315 5.12134 14.2085L3.92314 12.3345C3.8763 12.2612 3.8141 12.199 3.74084 12.1522L1.86683 10.954C1.54387 10.7475 1.49472 10.2953 1.76577 10.0242L2.6543 9.13571C2.80451 8.9855 3.02295 8.92591 3.22862 8.97904L4.22881 9.23741C4.45516 9.29588 4.69486 9.21755 4.84301 9.0367L6.13179 7.46349C6.35654 7.18914 6.29556 6.78076 6.00046 6.58403L3.04622 4.61454C2.73122 4.40454 2.68705 3.95887 2.9547 3.69112L4.06045 2.58498C4.22117 2.4242 4.45894 2.36807 4.6746 2.43998L9.11488 3.92065C9.3305 3.99255 9.56823 3.93644 9.72895 3.77572L11.9954 1.5093C12.776 0.727968 13.9854 0.670635 14.6954 1.38064C15.4054 2.09064 15.3474 3.2993 14.5667 4.08064L12.3002 6.34709C12.1395 6.50779 12.0834 6.74549 12.1553 6.96109L13.6348 11.3996C13.7067 11.6151 13.6506 11.8528 13.4899 12.0135L12.3842 13.1197C12.1165 13.3874 11.6707 13.3434 11.4606 13.0283L9.50602 10.0971Z" fill="white"/>
</svg>
