<svg width="19" height="18" viewBox="0 0 19 18" fill="none" xmlns="http://www.w3.org/2000/svg">
<path d="M10.6445 16.0552V10.4552H15.1445V14.6552C15.1445 15.0265 14.9865 15.3826 14.7052 15.6452C14.4239 15.9077 14.0424 16.0552 13.6445 16.0552H10.6445ZM9.14453 6.2552V9.0552H4.64453C4.44562 9.0552 4.25485 8.98145 4.1142 8.85018C3.97355 8.7189 3.89453 8.54085 3.89453 8.3552V6.9552C3.89453 6.76955 3.97355 6.5915 4.1142 6.46023C4.25485 6.32895 4.44562 6.2552 4.64453 6.2552H5.04578C4.6728 5.65372 4.5528 4.94428 4.70911 4.26482C4.86542 3.58535 5.28688 2.98441 5.89153 2.57886C6.49618 2.1733 7.24082 1.9921 7.98066 2.07049C8.7205 2.14888 9.40267 2.48126 9.89453 3.003C10.3864 2.48126 11.0686 2.14888 11.8084 2.07049C12.5482 1.9921 13.2929 2.1733 13.8975 2.57886C14.5022 2.98441 14.9236 3.58535 15.08 4.26482C15.2363 4.94428 15.1163 5.65372 14.7433 6.2552H15.1445C15.3434 6.2552 15.5342 6.32895 15.6749 6.46023C15.8155 6.5915 15.8945 6.76955 15.8945 6.9552V8.3552C15.8945 8.54085 15.8155 8.7189 15.6749 8.85018C15.5342 8.98145 15.3434 9.0552 15.1445 9.0552H10.6445V6.2552H9.14453ZM9.14453 16.0552H6.14453C5.74671 16.0552 5.36518 15.9077 5.08387 15.6452C4.80257 15.3826 4.64453 15.0265 4.64453 14.6552V10.4552H9.14453V16.0552ZM9.14453 6.2552V4.8552C9.14453 4.57831 9.05656 4.30763 8.89174 4.0774C8.72691 3.84718 8.49265 3.66773 8.21856 3.56177C7.94447 3.45581 7.64287 3.42808 7.3519 3.4821C7.06092 3.53612 6.79365 3.66946 6.58387 3.86525C6.37409 4.06105 6.23123 4.3105 6.17335 4.58208C6.11548 4.85365 6.14518 5.13514 6.25871 5.39096C6.37224 5.64678 6.5645 5.86543 6.81118 6.01926C7.05785 6.17309 7.34786 6.2552 7.64453 6.2552H9.14453ZM10.6445 6.2552H12.1445C12.4412 6.2552 12.7312 6.17309 12.9779 6.01926C13.2246 5.86543 13.4168 5.64678 13.5304 5.39096C13.6439 5.13514 13.6736 4.85365 13.6157 4.58208C13.5578 4.3105 13.415 4.06105 13.2052 3.86525C12.9954 3.66946 12.7281 3.53612 12.4372 3.4821C12.1462 3.42808 11.8446 3.45581 11.5705 3.56177C11.2964 3.66773 11.0621 3.84718 10.8973 4.0774C10.7325 4.30763 10.6445 4.57831 10.6445 4.8552V6.2552Z" fill="#FDFFFC"/>
</svg>
