<svg width="40" height="41" viewBox="0 0 40 41" fill="none" xmlns="http://www.w3.org/2000/svg">
<rect x="1" y="1.5" width="38" height="38" rx="19" fill="#D8FFE0"/>
<rect x="1" y="1.5" width="38" height="38" rx="19" stroke="white" stroke-width="2"/>
<path d="M20.0696 31.4966C26.2828 31.4966 31.3197 26.4597 31.3197 20.2465C31.3197 14.0332 26.2828 8.99634 20.0696 8.99634C13.8563 8.99634 8.81946 14.0332 8.81946 20.2465C8.81946 26.4597 13.8563 31.4966 20.0696 31.4966Z" fill="#50B651"/>
<path opacity="0.663" fill-rule="evenodd" clip-rule="evenodd" d="M31.2853 20.2149C31.2853 26.4477 26.2327 31.5003 20.0013 31.5003C13.7699 31.5003 8.71594 26.4477 8.71594 20.2149C8.71594 17.4578 8.79322 17.0478 9.8785 15.4782C9.8785 15.4782 9.8225 17.2511 11.1225 18.3062C11.9309 18.9616 12.7745 18.4884 14.3187 17.7772C15.9892 17.0072 17.3472 16.5105 18.4067 16.6416C20.0027 16.8392 24.9221 19.7935 27.4894 19.2052C29.5404 18.7362 29.3239 13.9006 29.3239 13.9006C31.5639 16.088 31.2853 17.5664 31.2853 20.2149Z" fill="url(#paint0_linear_241_5130)"/>
<path opacity="0.586" fill-rule="evenodd" clip-rule="evenodd" d="M24.8445 28.5039C28.9259 24.6647 29.6044 20.2665 26.8798 15.3092C26.8936 15.3192 27.0622 14.7376 27.3855 13.5642C28.8355 15.3202 29.6065 17.4876 29.6986 20.0664C29.6978 23.4066 28.0798 26.2191 24.8445 28.5039Z" fill="url(#paint1_linear_241_5130)"/>
<path opacity="0.744" fill-rule="evenodd" clip-rule="evenodd" d="M22.908 13.5877C20.9379 12.4974 18.6778 10.3042 18.9782 9.84358C19.2787 9.38298 23.1782 9.46222 25.1486 10.5525C27.1189 11.6429 28.7959 14.9135 28.4957 15.3741C28.1955 15.8347 24.8781 14.6781 22.908 13.5877Z" fill="url(#paint2_radial_241_5130)"/>
<path fill-rule="evenodd" clip-rule="evenodd" d="M24.624 23.0167C22.9896 23.0167 21.6647 21.654 21.6647 19.9731C21.6647 18.2923 22.9896 16.9298 24.624 16.9298C26.2584 16.9298 27.5836 18.2923 27.5836 19.9731C27.5836 21.654 26.2586 23.0167 24.624 23.0167ZM24.645 22.0513C25.665 22.0513 26.493 21.1208 26.493 19.9731C26.493 18.8254 25.665 17.8958 24.645 17.8958C23.625 17.8958 22.797 18.8262 22.797 19.9737C22.797 21.1211 23.625 22.0513 24.645 22.0513Z" fill="white"/>
<path fill-rule="evenodd" clip-rule="evenodd" d="M18.5186 14.4794H20.651V22.983H19.4804V15.4121H18.5186V14.4794Z" fill="white"/>
<path fill-rule="evenodd" clip-rule="evenodd" d="M16.9294 17.0164H18.0363V24.1178C18.0363 24.7649 17.3556 25.4388 16.6923 25.7289C16.3787 25.8659 15.8 25.9473 14.9563 25.9731V25.2666C15.7815 25.1746 16.3385 24.991 16.6273 24.7159C16.7939 24.4843 16.8981 24.2137 16.9297 23.9302V21.8439C16.6338 22.4717 16.2613 22.8878 15.8119 23.0924C15.3449 23.3444 14.3943 23.303 14.0062 23.0924C13.6181 22.8819 13.0489 22.3275 12.7879 21.5018C12.7157 21.2738 12.5359 20.6536 12.5547 19.9965C12.5715 19.3707 12.7787 18.7085 12.9509 18.4363C13.2466 17.9715 13.7128 17.3894 14.4189 17.1461C14.7639 17.0272 15.4032 16.9844 16.3369 17.0178V17.7204C15.6431 17.6735 15.2102 17.6969 15.0383 17.7906C14.7804 17.9306 14.1983 18.1034 14.0062 19.3721C13.8141 20.6407 14.0118 21.679 14.6208 22.0041C14.8294 22.1161 15.1985 22.2485 15.5395 22.1318C16.1947 21.9078 16.8113 21.1089 16.8583 20.5677C16.9057 20.0185 16.9294 18.8347 16.9294 17.0164Z" fill="white"/>
<path fill-rule="evenodd" clip-rule="evenodd" d="M30.9318 22.4735C29.8866 27.5065 25.4268 31.2882 20.0841 31.2882C13.9652 31.2882 9.00476 26.3277 9.00476 20.2089C9.00476 16.4076 10.9191 13.0535 13.8362 11.0585C11.466 13.0241 9.95676 15.9935 9.95676 19.314C9.95676 25.2368 14.7582 30.038 20.6808 30.038C25.504 30.038 29.5831 26.8541 30.9318 22.4735Z" fill="url(#paint3_radial_241_5130)"/>
<path fill-rule="evenodd" clip-rule="evenodd" d="M20.0837 7.08801C12.8373 7.08801 6.96265 12.9624 6.96265 20.2088C6.96265 27.4552 12.8373 33.3299 20.0837 33.3299C27.3301 33.3299 33.2048 27.4552 33.2048 20.2088C33.2048 12.9624 27.3301 7.08801 20.0837 7.08801ZM20.0837 31.2884C13.9649 31.2884 9.00441 26.3279 9.00441 20.2091C9.00441 16.4078 10.9188 13.0537 13.8358 11.0587C15.6755 9.79871 17.8539 9.12606 20.0837 9.12949C26.2026 9.12949 31.163 14.0897 31.163 20.2088C31.1634 20.9696 31.0858 21.7285 30.9315 22.4735C29.8862 27.5064 25.4264 31.2881 20.0837 31.2881V31.2884Z" fill="white"/>
<defs>
<linearGradient id="paint0_linear_241_5130" x1="19.5654" y1="15.4418" x2="21.0119" y2="28.5046" gradientUnits="userSpaceOnUse">
<stop stop-color="#123214"/>
<stop offset="0.46" stop-color="#3E7C37"/>
<stop offset="0.91" stop-color="#5FBB46"/>
</linearGradient>
<linearGradient id="paint1_linear_241_5130" x1="27.9224" y1="14.5922" x2="27.9224" y2="25.1553" gradientUnits="userSpaceOnUse">
<stop stop-color="white" stop-opacity="0"/>
<stop offset="0.64" stop-color="white" stop-opacity="0.43"/>
<stop offset="1" stop-color="white" stop-opacity="0.42"/>
</linearGradient>
<radialGradient id="paint2_radial_241_5130" cx="0" cy="0" r="1" gradientUnits="userSpaceOnUse" gradientTransform="translate(23.9767 12.6829) rotate(26.7606) scale(5.55921 2.31531)">
<stop offset="0.13" stop-color="white"/>
<stop offset="0.29" stop-color="white" stop-opacity="0.69"/>
<stop offset="0.45" stop-color="white" stop-opacity="0.4"/>
<stop offset="0.59" stop-color="white" stop-opacity="0.18"/>
<stop offset="0.69" stop-color="white" stop-opacity="0.05"/>
<stop offset="0.74" stop-color="white" stop-opacity="0"/>
</radialGradient>
<radialGradient id="paint3_radial_241_5130" cx="0" cy="0" r="1" gradientUnits="userSpaceOnUse" gradientTransform="translate(21.9839 17.6562) rotate(39.84) scale(12.458 13.5793)">
<stop offset="0.86" stop-opacity="0"/>
<stop offset="0.98" stop-opacity="0.47"/>
<stop offset="1"/>
</radialGradient>
</defs>
</svg>
