<svg width="19" height="19" viewBox="0 0 19 19" fill="none" xmlns="http://www.w3.org/2000/svg">
<g clip-path="url(#clip0_3796_21044)">
<path d="M18.4877 9.40007C18.4877 8.66262 18.4265 8.12447 18.294 7.56641H9.6792V10.8949H14.7359C14.634 11.7221 14.0835 12.9678 12.86 13.8048L12.8429 13.9163L15.5667 15.9789L15.7554 15.9973C17.4886 14.4327 18.4877 12.1306 18.4877 9.40007Z" fill="#4285F4"/>
<path d="M9.67926 18.1698C12.1566 18.1698 14.2364 17.3725 15.7555 15.9973L12.8601 13.8048C12.0853 14.333 11.0454 14.7017 9.67926 14.7017C7.25285 14.7017 5.19347 13.1372 4.45936 10.9746L4.35175 10.9835L1.51946 13.1262L1.48242 13.2268C2.99127 16.1567 6.09057 18.1698 9.67926 18.1698Z" fill="#00A353"/>
<path d="M4.4593 10.9745C4.2656 10.4165 4.15349 9.81849 4.15349 9.20065C4.15349 8.58274 4.2656 7.98482 4.44911 7.42675L4.44398 7.3079L1.57619 5.13086L1.48236 5.17449C0.860492 6.39031 0.503662 7.75563 0.503662 9.20065C0.503662 10.6457 0.860492 12.0109 1.48236 13.2267L4.4593 10.9745Z" fill="#FBBC05"/>
<path d="M9.67926 3.70044C11.4022 3.70044 12.5644 4.42793 13.2271 5.03588L15.8166 2.56438C14.2263 1.11937 12.1566 0.232422 9.67926 0.232422C6.09057 0.232422 2.99127 2.24547 1.48242 5.17535L4.44917 7.42761C5.19347 5.26507 7.25285 3.70044 9.67926 3.70044Z" fill="#EB4335"/>
</g>
<defs>
<clipPath id="clip0_3796_21044">
<rect width="18" height="18" fill="white" transform="translate(0.5 0.232422)"/>
</clipPath>
</defs>
</svg>
