<svg width="38" height="39" viewBox="0 0 38 39" fill="none" xmlns="http://www.w3.org/2000/svg">
<rect y="0.5" width="38" height="38" rx="19" fill="#E6FFED"/>
<g clip-path="url(#clip0_246_8389)">
<path d="M9.70895 16.8249C10.3278 16.8253 10.9468 16.833 11.5654 16.8214C11.8068 16.8169 11.862 16.9233 11.8657 17.1377C11.8696 17.3626 11.7706 17.4185 11.5646 17.4195C10.7202 17.4235 9.87512 17.3851 9.03153 17.4546C8.49836 17.4985 7.98135 17.6061 7.50316 17.8513C6.8407 18.1909 6.39398 18.6916 6.37621 19.4677C6.35813 20.2574 6.78065 20.7946 7.45701 21.1387C8.31458 21.575 9.23609 21.6682 10.1807 21.5343C10.5617 21.4803 10.6916 21.303 10.6956 20.9157C10.6983 20.6528 10.6875 20.3895 10.697 20.1269C10.7044 19.9238 10.6156 19.846 10.4175 19.8497C10.1131 19.8553 9.80775 19.8363 9.50423 19.8529C9.25889 19.8663 9.15181 19.8053 9.15462 19.5339C9.15733 19.2721 9.27168 19.2332 9.49478 19.2349C10.477 19.2424 11.4595 19.2298 12.4416 19.2419C12.6793 19.2448 12.7804 19.1904 12.8268 18.939C13.0028 17.9845 13.6362 17.3663 14.5133 17.0781C16.022 16.5824 17.5732 16.5566 19.0813 17.0879C20.8645 17.7162 21.4293 19.8611 20.2035 21.2082C19.7743 21.6799 19.222 21.9579 18.6061 22.0851C17.1608 22.3834 15.7224 22.4201 14.3232 21.8541C13.8986 21.6824 13.5405 21.4137 13.2599 21.049C13.2187 20.9955 13.1726 20.9295 13.099 20.9342C13.0257 20.9388 13.0184 21.0134 13.0201 21.0699C13.0388 21.6902 12.5968 21.9005 12.1117 22.0568C11.9178 22.1193 11.7083 22.1589 11.5049 22.1636C10.0915 22.1963 8.67587 22.2679 7.26878 22.0677C6.51694 21.9607 5.7858 21.7759 5.13156 21.3677C3.57977 20.3995 3.63465 18.4681 5.23503 17.5818C6.06874 17.1201 6.98167 16.9623 7.9128 16.876C8.50963 16.8207 9.10954 16.8187 9.70895 16.8249ZM15.1386 19.2996C15.1379 20.0247 15.2441 20.4289 15.5044 20.8809C16.092 21.9015 17.2788 21.9789 17.9946 21.0445C18.1257 20.8733 18.1773 20.6679 18.2651 20.4783C18.6609 19.6242 18.444 18.3642 17.7603 17.7243C17.1763 17.1776 16.3824 17.1777 15.8106 17.7384C15.3218 18.2177 15.1472 18.8236 15.1386 19.2996Z" fill="#DD0514"/>
<path d="M22.7499 22.192C22.5734 22.1918 22.3954 22.1926 22.2205 22.1723C21.5565 22.0953 21.1601 21.6579 21.1583 20.9956C21.155 19.7491 21.1576 18.5026 21.1596 17.2562C21.1602 16.8971 21.2301 16.8261 21.587 16.824C22.1173 16.8208 22.6477 16.8199 23.1779 16.8233C23.4996 16.8254 23.5777 16.9053 23.5808 17.2189C23.5832 17.4623 23.5947 17.7066 23.5782 17.949C23.5614 18.1971 23.665 18.2666 23.9043 18.2649C25.1712 18.2562 26.4382 18.2715 27.7049 18.2538C28.0462 18.249 28.2591 18.3514 28.4538 18.6377C29.0678 19.541 29.7138 20.423 30.3494 21.3118C30.5582 21.6037 30.5753 21.6027 30.7984 21.314C31.5142 20.3874 32.2285 19.4597 32.9447 18.5334C33.1201 18.3066 33.6714 18.1622 33.9262 18.278C34.0808 18.3483 33.9516 18.4249 33.9118 18.4778C33.5305 18.9848 31.7722 21.2534 31.2955 21.8962C31.1323 22.1161 30.9472 22.2017 30.6754 22.1998C29.3005 22.1903 24.0168 22.1935 22.7499 22.192ZM26.0144 21.618C26.6425 21.618 27.2707 21.6185 27.8988 21.6172C27.9647 21.617 28.048 21.6374 28.0836 21.5632C28.1187 21.4899 28.0492 21.4373 28.0103 21.3868C27.4035 20.598 26.793 19.8119 26.1872 19.0224C26.0903 18.8961 25.9777 18.8303 25.8148 18.8316C25.1669 18.8365 24.519 18.8413 23.8712 18.8334C23.6316 18.8305 23.573 18.937 23.577 19.1545C23.5882 19.7578 23.5799 20.3615 23.583 20.965C23.5857 21.4849 23.7112 21.6127 24.2474 21.6193C24.8363 21.6266 26.0144 21.619 26.0144 21.618Z" fill="#05893B"/>
</g>
<defs>
<clipPath id="clip0_246_8389">
<rect width="30" height="5.6" fill="white" transform="translate(4 16.7)"/>
</clipPath>
</defs>
</svg>
