<svg width="" height="" viewBox="0 0 24 24" fill="none" xmlns="http://www.w3.org/2000/svg">
<path d="M14.1055 11H18.0585C18.6045 11 19.0465 11.448 19.0465 12C19.0465 12.552 18.6045 13 18.0585 13H13.1175C12.987 12.9992 12.8579 12.9727 12.7376 12.922C12.6173 12.8714 12.5082 12.7975 12.4164 12.7046C12.3247 12.6118 12.2521 12.5017 12.2029 12.3808C12.1537 12.2599 12.1287 12.1305 12.1295 12V6C12.1295 5.448 12.5715 5 13.1175 5C13.6635 5 14.1055 5.448 14.1055 6V11ZM20.1055 4.929C21.9654 6.81183 23.0056 9.35348 22.9995 12C22.9995 17.523 18.5755 22 13.1175 22V20C17.4835 20 21.0235 16.418 21.0235 12C21.0286 9.88253 20.196 7.84899 18.7075 6.343C17.9781 5.60074 17.1081 5.01126 16.1483 4.60898C15.1885 4.20669 14.1582 3.99967 13.1175 4C9.57353 4 6.57353 6.36 5.57053 9.612L6.92253 8.689C7.03 8.61562 7.15101 8.56436 7.27849 8.53821C7.40597 8.51205 7.53739 8.51153 7.66507 8.53665C7.79276 8.56178 7.91418 8.61206 8.02224 8.68457C8.13031 8.75708 8.22287 8.85037 8.29453 8.959C8.4412 9.17907 8.49542 9.44801 8.44546 9.70772C8.3955 9.96742 8.24538 10.1971 8.02753 10.347L4.75053 12.584C4.64305 12.6574 4.52204 12.7086 4.39456 12.7348C4.26708 12.7609 4.13567 12.7615 4.00798 12.7363C3.88029 12.7112 3.75888 12.6609 3.65081 12.5884C3.54275 12.5159 3.45019 12.4226 3.37853 12.314L1.16953 8.998C1.02254 8.77785 0.968139 8.50868 1.01811 8.24873C1.06808 7.98878 1.21839 7.75896 1.43653 7.609C1.544 7.53562 1.66501 7.48436 1.79249 7.45821C1.91997 7.43205 2.05139 7.43153 2.17907 7.45665C2.30676 7.48178 2.42818 7.53206 2.53624 7.60457C2.64431 7.67708 2.73687 7.77037 2.80853 7.879L3.64753 9.138C4.86253 5.01 8.64253 2 13.1175 2C15.8465 2 18.3175 3.12 20.1055 4.929Z" fill=""/>
</svg>
