<svg width="23" height="22" viewBox="0 0 23 22" fill="none" xmlns="http://www.w3.org/2000/svg">
<path d="M18.6111 18.3334V8.37105L11.2778 3.97105L3.94442 8.37105V18.3334H7.61108V15.8125C7.61108 14.8401 7.99739 13.9075 8.68503 13.2198C9.37266 12.5322 10.3053 12.1459 11.2778 12.1459C12.2502 12.1459 13.1828 12.5322 13.8705 13.2198C14.5581 13.9075 14.9444 14.8401 14.9444 15.8125V18.3334H18.6111ZM13.1111 20.1667V15.8125C13.1111 15.3263 12.9179 14.86 12.5741 14.5162C12.2303 14.1724 11.764 13.9792 11.2778 13.9792C10.7915 13.9792 10.3252 14.1724 9.98139 14.5162C9.63757 14.86 9.44442 15.3263 9.44442 15.8125V20.1667H3.94442C3.45819 20.1667 2.99187 19.9736 2.64805 19.6297C2.30424 19.2859 2.11108 18.8196 2.11108 18.3334V8.37105C2.11108 8.05445 2.19306 7.74326 2.34904 7.46776C2.50503 7.19226 2.72969 6.96185 3.00117 6.79896L10.3345 2.39896C10.6194 2.228 10.9455 2.1377 11.2778 2.1377C11.61 2.1377 11.9361 2.228 12.221 2.39896L19.5543 6.79896C19.8258 6.96185 20.0505 7.19226 20.2065 7.46776C20.3624 7.74326 20.4444 8.05445 20.4444 8.37105V18.3334C20.4444 18.8196 20.2513 19.2859 19.9074 19.6297C19.5636 19.9736 19.0973 20.1667 18.6111 20.1667H13.1111Z" fill=""/>
</svg>
