<svg width="24" height="25" viewBox="0 0 24 25" fill="none" xmlns="http://www.w3.org/2000/svg">
<path d="M16.017 2.5H7.947C6.37015 2.50185 4.85844 3.12914 3.74353 4.24424C2.62862 5.35933 2.00159 6.87115 2 8.448L2 16.518C2.00185 18.0948 2.62914 19.6066 3.74424 20.7215C4.85933 21.8364 6.37115 22.4634 7.948 22.465H16.018C17.5948 22.4631 19.1066 21.8359 20.2215 20.7208C21.3364 19.6057 21.9634 18.0938 21.965 16.517V8.447C21.9631 6.87015 21.3359 5.35844 20.2208 4.24353C19.1057 3.12862 17.5938 2.50159 16.017 2.5V2.5ZM19.957 16.517C19.957 17.0344 19.8551 17.5468 19.6571 18.0248C19.4591 18.5028 19.1689 18.9371 18.803 19.303C18.4371 19.6689 18.0028 19.9591 17.5248 20.1571C17.0468 20.3551 16.5344 20.457 16.017 20.457H7.947C6.90222 20.4567 5.90032 20.0415 5.16165 19.3026C4.42297 18.5638 4.008 17.5618 4.008 16.517V8.447C4.00827 7.40222 4.42349 6.40032 5.16235 5.66165C5.90122 4.92297 6.90322 4.508 7.948 4.508H16.018C17.0628 4.50827 18.0647 4.92349 18.8034 5.66235C19.542 6.40122 19.957 7.40322 19.957 8.448V16.518V16.517Z" fill="#2FB01A"/>
<path d="M11.9821 7.31885C10.6135 7.32096 9.3016 7.86563 8.33397 8.83345C7.36633 9.80127 6.82192 11.1133 6.82007 12.4818C6.82166 13.8508 7.36609 15.1632 8.33397 16.1312C9.30185 17.0993 10.6142 17.644 11.9831 17.6458C13.3522 17.6443 14.6647 17.0997 15.6328 16.1316C16.6009 15.1635 17.1455 13.8509 17.1471 12.4818C17.145 11.1129 16.6 9.80073 15.6318 8.83304C14.6635 7.86535 13.351 7.32117 11.9821 7.31985V7.31885ZM11.9821 15.6378C11.1453 15.6378 10.3428 15.3054 9.75115 14.7138C9.15947 14.1221 8.82707 13.3196 8.82707 12.4828C8.82707 11.6461 9.15947 10.8436 9.75115 10.2519C10.3428 9.66025 11.1453 9.32785 11.9821 9.32785C12.8188 9.32785 13.6213 9.66025 14.213 10.2519C14.8047 10.8436 15.1371 11.6461 15.1371 12.4828C15.1371 13.3196 14.8047 14.1221 14.213 14.7138C13.6213 15.3054 12.8188 15.6378 11.9821 15.6378Z" fill="#2FB01A"/>
<path d="M17.1559 8.59509C17.8391 8.59509 18.3929 8.04127 18.3929 7.35809C18.3929 6.67492 17.8391 6.12109 17.1559 6.12109C16.4728 6.12109 15.9189 6.67492 15.9189 7.35809C15.9189 8.04127 16.4728 8.59509 17.1559 8.59509Z" fill="#2FB01A"/>
</svg>
