<svg width="22" height="23" viewBox="0 0 22 23" fill="none" xmlns="http://www.w3.org/2000/svg">
<path d="M18.7652 2.33314H3.2369C3.06235 2.33071 2.88903 2.3627 2.72684 2.42726C2.56465 2.49183 2.41677 2.58771 2.29164 2.70944C2.16651 2.83116 2.06658 2.97635 1.99756 3.13669C1.92855 3.29704 1.8918 3.46942 1.8894 3.64397V19.3556C1.8918 19.5302 1.92855 19.7026 1.99756 19.8629C2.06658 20.0233 2.16651 20.1684 2.29164 20.2902C2.41677 20.4119 2.56465 20.5078 2.72684 20.5723C2.88903 20.6369 3.06235 20.6689 3.2369 20.6665H18.7652C18.9398 20.6689 19.1131 20.6369 19.2753 20.5723C19.4375 20.5078 19.5854 20.4119 19.7105 20.2902C19.8356 20.1684 19.9356 20.0233 20.0046 19.8629C20.0736 19.7026 20.1103 19.5302 20.1127 19.3556V3.64397C20.1103 3.46942 20.0736 3.29704 20.0046 3.13669C19.9356 2.97635 19.8356 2.83116 19.7105 2.70944C19.5854 2.58771 19.4375 2.49183 19.2753 2.42726C19.1131 2.3627 18.9398 2.33071 18.7652 2.33314ZM7.4169 17.6781H4.6669V9.42814H7.4169V17.6781ZM6.0419 8.27314C5.66265 8.27314 5.29892 8.12248 5.03074 7.8543C4.76256 7.58612 4.6119 7.2224 4.6119 6.84314C4.6119 6.46388 4.76256 6.10015 5.03074 5.83197C5.29892 5.5638 5.66265 5.41314 6.0419 5.41314C6.24329 5.3903 6.44723 5.41025 6.64037 5.4717C6.83351 5.53314 7.0115 5.63469 7.16267 5.76968C7.31385 5.90468 7.4348 6.07009 7.51762 6.25508C7.60044 6.44006 7.64325 6.64046 7.64325 6.84314C7.64325 7.04581 7.60044 7.24621 7.51762 7.43119C7.4348 7.61618 7.31385 7.78159 7.16267 7.91659C7.0115 8.05159 6.83351 8.15313 6.64037 8.21458C6.44723 8.27602 6.24329 8.29598 6.0419 8.27314ZM17.3352 17.6781H14.5852V13.2506C14.5852 12.1415 14.1911 11.4173 13.1919 11.4173C12.8827 11.4196 12.5816 11.5166 12.3292 11.6952C12.0768 11.8739 11.8852 12.1256 11.7802 12.4165C11.7085 12.6319 11.6774 12.8588 11.6886 13.0856V17.669H8.93857C8.93857 17.669 8.93857 10.1706 8.93857 9.41897H11.6886V10.5831C11.9384 10.1497 12.3017 9.79253 12.7395 9.55024C13.1772 9.30795 13.6728 9.18967 14.1727 9.20814C16.0061 9.20814 17.3352 10.3906 17.3352 12.9298V17.6781Z" fill="#2FB01A"/>
</svg>
