<svg width="16" height="17" viewBox="0 0 16 17" fill="none" xmlns="http://www.w3.org/2000/svg">
<path d="M7.33333 2.67446H5.2C4.0799 2.67446 3.51984 2.67446 3.09202 2.89308C2.71569 3.08539 2.40973 3.39224 2.21799 3.76966C2 4.19872 2 4.76041 2 5.88377V9.36051C2 9.98229 2 10.2932 2.06815 10.5483C2.25308 11.2404 2.79218 11.7811 3.48236 11.9666C3.7367 12.0349 4.04669 12.0349 4.66667 12.0349V13.5965C4.66667 13.9527 4.66667 14.1309 4.73949 14.2223C4.80282 14.3019 4.89885 14.3482 5.00036 14.3481C5.11708 14.348 5.25578 14.2367 5.53317 14.0141L7.12348 12.7382C7.44834 12.4775 7.61078 12.3472 7.79166 12.2545C7.95213 12.1723 8.12295 12.1122 8.29948 12.0759C8.49845 12.0349 8.70646 12.0349 9.1225 12.0349H10.1333C11.2534 12.0349 11.8135 12.0349 12.2413 11.8163C12.6176 11.624 12.9236 11.3172 13.1153 10.9397C13.3333 10.5107 13.3333 9.94899 13.3333 8.82563V8.69191M13.4142 2.59335C14.1953 3.37667 14.1953 4.64668 13.4142 5.43C12.6332 6.21332 11.3668 6.21332 10.5858 5.43C9.80474 4.64668 9.80474 3.37667 10.5858 2.59335C11.3668 1.81003 12.6332 1.81003 13.4142 2.59335Z" stroke="white" stroke-width="1.5" stroke-linecap="round" stroke-linejoin="round"/>
</svg>
