<svg width="18" height="19" viewBox="0 0 18 19" fill="none" xmlns="http://www.w3.org/2000/svg">
<path d="M6.31055 8.54336H10.5421C10.6405 8.54336 10.7381 8.56276 10.8291 8.60045C10.9201 8.63814 11.0027 8.69339 11.0724 8.76303C11.142 8.83268 11.1973 8.91536 11.235 9.00635C11.2727 9.09734 11.2921 9.19487 11.2921 9.29336C11.2921 9.39185 11.2727 9.48938 11.235 9.58038C11.1973 9.67137 11.142 9.75405 11.0724 9.82369C11.0027 9.89334 10.9201 9.94858 10.8291 9.98627C10.7381 10.024 10.6405 10.0434 10.5421 10.0434H6.31055L7.15205 10.8849C7.29269 11.0256 7.37165 11.2164 7.37158 11.4154C7.37151 11.6143 7.29241 11.8051 7.15168 11.9457C7.01095 12.0864 6.82012 12.1653 6.62116 12.1653C6.42221 12.1652 6.23144 12.0861 6.09081 11.9454L3.9698 9.82436C3.8998 9.75486 3.84425 9.67219 3.80633 9.58112C3.76842 9.49005 3.7489 9.39238 3.7489 9.29374C3.7489 9.19509 3.76842 9.09742 3.80633 9.00635C3.84425 8.91528 3.8998 8.83262 3.9698 8.76311L6.09005 6.64211C6.23069 6.50138 6.42146 6.42228 6.62041 6.42221C6.81937 6.42214 7.0102 6.50111 7.15093 6.64174C7.29166 6.78237 7.37076 6.97315 7.37083 7.1721C7.3709 7.37105 7.29194 7.56188 7.1513 7.70261L6.31055 8.54336ZM13.5001 2.67236C13.699 2.67236 13.8897 2.75138 14.0304 2.89203C14.171 3.03269 14.2501 3.22345 14.2501 3.42236V15.4224C14.2501 15.6213 14.171 15.812 14.0304 15.9527C13.8897 16.0933 13.699 16.1724 13.5001 16.1724C13.3011 16.1724 13.1104 16.0933 12.9697 15.9527C12.8291 15.812 12.7501 15.6213 12.7501 15.4224V3.42236C12.7501 3.22345 12.8291 3.03269 12.9697 2.89203C13.1104 2.75138 13.3011 2.67236 13.5001 2.67236V2.67236Z" fill="#2FB01A"/>
</svg>
