<svg width="40" height="41" viewBox="0 0 40 41" fill="none" xmlns="http://www.w3.org/2000/svg">
<rect x="1" y="1.5" width="38" height="38" rx="19" fill="#FFFCE6"/>
<rect x="1" y="1.5" width="38" height="38" rx="19" stroke="white" stroke-width="2"/>
<g clip-path="url(#clip0_241_5120)">
<path d="M20 13.5001C12.2681 13.5001 6 16.6342 6 20.5001C6 24.3661 12.2681 27.5001 20 27.5001C27.7319 27.5001 34 24.366 34 20.5001C34 16.6341 27.7319 13.5001 20 13.5001ZM20 26.395C12.8784 26.395 7.10515 23.7558 7.10515 20.5001C7.10515 17.2444 12.8784 14.6052 20 14.6052C27.1216 14.6052 32.8948 17.2444 32.8948 20.5001C32.8948 23.7558 27.1216 26.395 20 26.395ZM18.2344 19.272V18.1667H22.184V19.272H20.7621V22.8335H19.6566V19.272H18.2344ZM26.9514 18.1667V22.8335H25.8463L23.8419 20.0554V22.8335H22.7367V18.1667H23.8418L25.8462 20.9448V18.1667H26.9514ZM13.0157 22.8335V18.1667H14.1208L15.3487 20.0554L16.5765 18.1667H17.6812V22.8335H16.5765V20.1939L15.7383 21.4823H14.9591L14.1208 20.1939V22.8335H13.0157Z" fill="black"/>
</g>
<defs>
<clipPath id="clip0_241_5120">
<rect width="28" height="14" fill="white" transform="translate(6 13.5)"/>
</clipPath>
</defs>
</svg>
