<svg width="39" height="39" viewBox="0 0 39 39" fill="none" xmlns="http://www.w3.org/2000/svg">
<rect x="0.5" y="0.21106" width="38" height="38" rx="19" fill="#F1FFE6"/>
<g clip-path="url(#clip0_1568_5601)">
<path fill-rule="evenodd" clip-rule="evenodd" d="M15.0822 28.8354C15.3996 28.8354 15.6315 28.9026 15.778 29.0371C15.9244 29.1715 15.9978 29.3806 15.9979 29.6643L15.9979 31.1849H15.5219L15.5219 29.7286C15.5219 29.4079 15.3421 29.2476 14.9825 29.2476C14.8272 29.2463 14.6747 29.2892 14.5429 29.3713C14.5657 29.4673 14.5764 29.5657 14.5748 29.6643L14.5748 31.1849H14.0988L14.0988 29.7286C14.0988 29.4079 13.919 29.2476 13.5594 29.2476C13.3953 29.2478 13.2326 29.2773 13.0789 29.3347V31.1849H12.6031V29.0737C12.7606 28.9954 12.9274 28.9372 13.0994 28.9005C13.283 28.8577 13.4707 28.8355 13.6591 28.8342C13.956 28.8342 14.1766 28.8919 14.3209 29.0074C14.5586 28.8938 14.8188 28.8351 15.0822 28.8354ZM17.6289 31.2547C17.266 31.2547 16.9933 31.1508 16.8107 30.9432C16.6281 30.7355 16.5367 30.4332 16.5366 30.0364C16.5366 29.2333 16.8994 28.8318 17.6252 28.8319C17.9909 28.8319 18.2658 28.935 18.4501 29.141C18.6343 29.347 18.7265 29.6455 18.7267 30.0364C18.7267 30.427 18.6315 30.7277 18.4412 30.9385C18.2508 31.1493 17.9801 31.2547 17.6289 31.2547ZM17.6242 30.8469C18.0413 30.8469 18.2498 30.5767 18.2497 30.0364C18.2497 29.7677 18.2002 29.5669 18.1012 29.4342C18.0023 29.3014 17.8436 29.2349 17.6252 29.2347C17.4047 29.2347 17.2468 29.3027 17.1516 29.4386C17.0565 29.5745 17.0089 29.7738 17.0089 30.0364C17.0089 30.2988 17.0579 30.4995 17.1561 30.6386C17.2542 30.7776 17.4103 30.8477 17.6242 30.8469ZM20.3159 28.8364C20.6543 28.8364 20.9111 28.9387 21.0863 29.1432C21.2615 29.3477 21.3493 29.6375 21.3498 30.0124C21.3498 30.4643 21.2448 30.7842 21.0348 30.9719C20.8249 31.1596 20.558 31.2538 20.2342 31.2547C19.5845 31.2547 19.2596 31.0806 19.2596 30.7326V27.9652H19.7312V28.9784C19.826 28.9331 19.9256 28.8985 20.0281 28.8752C20.1222 28.8511 20.2187 28.8387 20.3159 28.8364ZM20.1978 30.8378C20.4453 30.8378 20.6184 30.766 20.7174 30.6225C20.8164 30.479 20.8659 30.2821 20.8659 30.0317C20.8659 29.7753 20.8137 29.58 20.7095 29.4455C20.6052 29.3111 20.4504 29.244 20.2451 29.2441C20.1556 29.2448 20.0666 29.2562 19.9799 29.2783C19.8931 29.2993 19.8097 29.3326 19.7324 29.3773V30.6143C19.7316 30.7628 19.8867 30.8379 20.1978 30.8378ZM21.8877 28.0852H22.3954V28.5205H21.8877V28.0852ZM21.9013 28.9005H22.3773L22.3818 31.1859H21.9013V28.9005ZM23.0518 31.1859V28.0157H23.5234V31.1849L23.0518 31.1859ZM25.118 28.83C25.4716 28.83 25.7307 28.9454 25.8954 29.1764C26.06 29.4073 26.1408 29.7302 26.1378 30.145H24.5415C24.5568 30.371 24.6228 30.5428 24.7394 30.6604C24.856 30.778 25.0215 30.8367 25.2357 30.8365C25.4924 30.8368 25.745 30.7722 25.9701 30.6487V31.0975C25.7344 31.2023 25.4644 31.2547 25.16 31.2547C24.8186 31.2547 24.5504 31.1501 24.3554 30.9409C24.1605 30.7318 24.0631 30.4349 24.0632 30.0502C24.0632 29.6563 24.1554 29.3549 24.3396 29.1459C24.5238 28.9369 24.7833 28.8316 25.118 28.83ZM25.1044 29.2258C24.9442 29.2258 24.8188 29.2686 24.7283 29.3542C24.6377 29.4399 24.5788 29.5848 24.5514 29.7892H25.6529C25.6316 29.5937 25.5772 29.4511 25.4896 29.3612C25.402 29.2713 25.2736 29.2262 25.1044 29.2258ZM20.5581 10.384C20.0331 10.2542 19.6289 10.1892 19.3457 10.1891C17.233 10.1891 15.5202 11.8963 15.5202 14.0015C15.5202 16.1068 17.2338 17.8142 19.3457 17.8142C21.4577 17.8142 23.1715 16.107 23.1715 14.0015C23.1717 13.694 23.1346 13.3875 23.0612 13.0888L26.1027 12.2696C26.3491 13.2063 26.3957 14.1843 26.2394 15.1401C26.0832 16.0959 25.7277 17.0082 25.1959 17.8177L20.1595 27.155H15.4937L18.8091 21.0438C18.8271 21.0101 18.7739 20.9359 18.7294 20.9319C15.1866 20.6103 12.4116 17.6413 12.4116 14.0268C12.4116 10.197 15.5266 7.09266 19.3695 7.09266C20.0729 7.09188 20.7725 7.19757 21.4443 7.40613L20.5581 10.384Z" fill="#006E53"/>
<path d="M19.3229 16.0983C20.481 16.0983 21.4198 15.1595 21.4198 14.0014C21.4198 12.8433 20.481 11.9045 19.3229 11.9045C18.1649 11.9045 17.2261 12.8433 17.2261 14.0014C17.2261 15.1595 18.1649 16.0983 19.3229 16.0983Z" fill="#006E53"/>
<path d="M22.9446 12.5721C22.5813 11.6628 21.8811 10.9286 20.99 10.5228M24.2792 12.0001C23.7661 10.7389 22.796 9.71772 21.5628 9.14069M25.566 11.5713C24.9125 9.90862 23.6274 8.57221 21.9915 7.85413" stroke="#006E53" stroke-width="0.476574" stroke-linecap="round"/>
</g>
<g clip-path="url(#clip1_1568_5601)">
<path fill-rule="evenodd" clip-rule="evenodd" d="M15.0822 28.8357C15.3996 28.8357 15.6315 28.9029 15.778 29.0373C15.9244 29.1717 15.9978 29.3808 15.9979 29.6645L15.9979 31.1851H15.5219L15.5219 29.7288C15.5219 29.4082 15.3421 29.2479 14.9825 29.2479C14.8272 29.2466 14.6747 29.2895 14.5429 29.3716C14.5657 29.4675 14.5764 29.5659 14.5748 29.6645L14.5748 31.1851H14.0988L14.0988 29.7288C14.0988 29.4082 13.919 29.2479 13.5594 29.2479C13.3953 29.248 13.2326 29.2775 13.0789 29.3349V31.1851H12.6031V29.0739C12.7606 28.9956 12.9274 28.9374 13.0994 28.9007C13.283 28.8579 13.4707 28.8357 13.6591 28.8344C13.956 28.8344 14.1766 28.8922 14.3209 29.0076C14.5586 28.8941 14.8188 28.8353 15.0822 28.8357ZM17.6289 31.2549C17.266 31.2549 16.9933 31.1511 16.8107 30.9434C16.6281 30.7357 16.5367 30.4335 16.5366 30.0366C16.5366 29.2335 16.8994 28.832 17.6252 28.8322C17.9909 28.8322 18.2658 28.9352 18.4501 29.1412C18.6343 29.3472 18.7265 29.6457 18.7267 30.0366C18.7267 30.4272 18.6315 30.7279 18.4412 30.9387C18.2508 31.1495 17.9801 31.2549 17.6289 31.2549ZM17.6242 30.8472C18.0413 30.8472 18.2498 30.577 18.2497 30.0366C18.2497 29.7679 18.2002 29.5672 18.1012 29.4344C18.0023 29.3016 17.8436 29.2352 17.6252 29.235C17.4047 29.235 17.2468 29.3029 17.1516 29.4389C17.0565 29.5748 17.0089 29.774 17.0089 30.0366C17.0089 30.299 17.0579 30.4998 17.1561 30.6388C17.2542 30.7779 17.4103 30.848 17.6242 30.8472ZM20.3159 28.8366C20.6543 28.8366 20.9111 28.9389 21.0863 29.1434C21.2615 29.348 21.3493 29.6377 21.3498 30.0126C21.3498 30.4646 21.2448 30.7844 21.0348 30.9721C20.8249 31.1598 20.558 31.2541 20.2342 31.2549C19.5845 31.2549 19.2596 31.0809 19.2596 30.7329V27.9655H19.7312V28.9787C19.826 28.9334 19.9256 28.8987 20.0281 28.8755C20.1222 28.8513 20.2187 28.839 20.3159 28.8366ZM20.1978 30.838C20.4453 30.838 20.6184 30.7663 20.7174 30.6227C20.8164 30.4792 20.8659 30.2823 20.8659 30.0319C20.8659 29.7756 20.8137 29.5802 20.7095 29.4458C20.6052 29.3114 20.4504 29.2442 20.2451 29.2444C20.1556 29.245 20.0666 29.2565 19.9799 29.2785C19.8931 29.2995 19.8097 29.3328 19.7324 29.3775V30.6146C19.7316 30.763 19.8867 30.8382 20.1978 30.838ZM21.8877 28.0855H22.3954V28.5207H21.8877V28.0855ZM21.9013 28.9007H22.3773L22.3818 31.1861H21.9013V28.9007ZM23.0518 31.1861V28.016H23.5234V31.1851L23.0518 31.1861ZM25.118 28.8302C25.4716 28.8302 25.7307 28.9457 25.8954 29.1766C26.06 29.4075 26.1408 29.7304 26.1378 30.1452H24.5415C24.5568 30.3712 24.6228 30.543 24.7394 30.6606C24.856 30.7782 25.0215 30.8369 25.2357 30.8368C25.4924 30.837 25.745 30.7724 25.9701 30.649V31.0978C25.7344 31.2025 25.4644 31.2549 25.16 31.2549C24.8186 31.2549 24.5504 31.1503 24.3554 30.9412C24.1605 30.732 24.0631 30.4351 24.0632 30.0505C24.0632 29.6566 24.1554 29.3552 24.3396 29.1462C24.5238 28.9372 24.7833 28.8319 25.118 28.8302ZM25.1044 29.2261C24.9442 29.2261 24.8188 29.2689 24.7283 29.3545C24.6377 29.4401 24.5788 29.5851 24.5514 29.7894H25.6529C25.6316 29.594 25.5772 29.4513 25.4896 29.3614C25.402 29.2715 25.2736 29.2264 25.1044 29.2261ZM20.5581 10.3843C20.0331 10.2545 19.6289 10.1895 19.3457 10.1893C17.233 10.1893 15.5202 11.8965 15.5202 14.0018C15.5202 16.107 17.2338 17.8145 19.3457 17.8145C21.4577 17.8145 23.1715 16.1073 23.1715 14.0018C23.1717 13.6942 23.1346 13.3877 23.0612 13.0891L26.1027 12.2699C26.3491 13.2065 26.3957 14.1845 26.2394 15.1403C26.0832 16.0962 25.7277 17.0085 25.1959 17.8179L20.1595 27.1552H15.4937L18.8091 21.044C18.8271 21.0104 18.7739 20.9361 18.7294 20.9322C15.1866 20.6105 12.4116 17.6415 12.4116 14.027C12.4116 10.1972 15.5266 7.0929 19.3695 7.0929C20.0729 7.09213 20.7725 7.19782 21.4443 7.40638L20.5581 10.3843Z" fill="#006E53"/>
</g>
<defs>
<clipPath id="clip0_1568_5601">
<rect width="25" height="21" fill="white" transform="translate(7 6.71106)"/>
</clipPath>
<clipPath id="clip1_1568_5601">
<rect width="25" height="4" fill="white" transform="translate(7 27.7111)"/>
</clipPath>
</defs>
</svg>
