<svg width="15" height="15" viewBox="0 0 15 15" fill="none" xmlns="http://www.w3.org/2000/svg">
<g clip-path="url(#clip0_524_7602)">
<path d="M5.84683 13.125C6.28754 13.514 6.86644 13.75 7.50047 13.75C8.1345 13.75 8.7134 13.514 9.15411 13.125M11.2505 5C11.2505 4.00544 10.8554 3.05161 10.1521 2.34835C9.44886 1.64509 8.49503 1.25 7.50047 1.25C6.50591 1.25 5.55208 1.64509 4.84882 2.34835C4.14556 3.05161 3.75047 4.00544 3.75047 5C3.75047 6.93137 3.26326 8.25372 2.71901 9.12838C2.25992 9.86617 2.03038 10.2351 2.0388 10.338C2.04812 10.4519 2.07226 10.4954 2.16408 10.5635C2.24701 10.625 2.62084 10.625 3.3685 10.625H11.6324C12.3801 10.625 12.7539 10.625 12.8369 10.5635C12.9287 10.4954 12.9528 10.4519 12.9621 10.338C12.9706 10.2351 12.741 9.86617 12.2819 9.12838C11.7377 8.25372 11.2505 6.93137 11.2505 5Z" stroke="#2FB01A" stroke-width="1.5" stroke-linecap="round" stroke-linejoin="round"/>
</g>
<defs>
<clipPath id="clip0_524_7602">
<rect width="15" height="15" fill="white"/>
</clipPath>
</defs>
</svg>
