<svg width="20" height="20" viewBox="0 0 20 20" fill="none" xmlns="http://www.w3.org/2000/svg">
<path d="M13.69 11.3209L13.1429 10.8314V6.57142C13.1429 5.7 12.7968 4.86426 12.1806 4.24807C11.5644 3.63188 10.7286 3.28571 9.85722 3.28571C8.98579 3.28571 8.15006 3.63188 7.53387 4.24807C6.91768 4.86426 6.5715 5.7 6.5715 6.57142V10.8314L6.02443 11.3209C5.23056 12.0294 4.64925 12.9446 4.34543 13.9643H15.369C15.0652 12.9446 14.4839 12.0294 13.69 11.3209ZM12.3215 15.6071C12.3215 16.2607 12.0619 16.8875 11.5997 17.3497C11.1376 17.8118 10.5108 18.0714 9.85722 18.0714C9.20365 18.0714 8.57685 17.8118 8.1147 17.3497C7.65256 16.8875 7.39293 16.2607 7.39293 15.6071H2.46436C2.46324 14.5668 2.68223 13.5381 3.10695 12.5884C3.53166 11.6387 4.15249 10.7897 4.92865 10.097V6.57142C4.92865 5.26429 5.4479 4.01068 6.37219 3.0864C7.29648 2.16211 8.55008 1.64285 9.85722 1.64285C11.1644 1.64285 12.418 2.16211 13.3422 3.0864C14.2665 4.01068 14.7858 5.26429 14.7858 6.57142V10.097C15.5619 10.7897 16.1828 11.6387 16.6075 12.5884C17.0322 13.5381 17.2512 14.5668 17.2501 15.6071H12.3215ZM9.85722 16.4286C10.0751 16.4286 10.284 16.342 10.4381 16.188C10.5921 16.0339 10.6786 15.825 10.6786 15.6071H9.03579C9.03579 15.825 9.12233 16.0339 9.27638 16.188C9.43043 16.342 9.63936 16.4286 9.85722 16.4286Z" fill="#141011"/>
</svg>
