<svg width="18" height="18" viewBox="0 0 18 18" fill="none" xmlns="http://www.w3.org/2000/svg">
<path d="M11.2499 6.74976H11.2574M11.2499 11.2498C13.7352 11.2498 15.7499 9.23504 15.7499 6.74976C15.7499 4.26447 13.7352 2.24976 11.2499 2.24976C8.76459 2.24976 6.74988 4.26447 6.74988 6.74976C6.74988 6.95501 6.76362 7.15706 6.79023 7.35503C6.83401 7.68064 6.8559 7.84344 6.84116 7.94645C6.82582 8.05375 6.80628 8.11157 6.75339 8.20618C6.70263 8.29701 6.61316 8.38647 6.43423 8.56541L2.60135 12.3983C2.47164 12.528 2.40678 12.5929 2.3604 12.6685C2.31928 12.7356 2.28897 12.8088 2.2706 12.8853C2.24988 12.9716 2.24988 13.0634 2.24988 13.2468V14.5498C2.24988 14.9698 2.24988 15.1798 2.33162 15.3402C2.40353 15.4814 2.51826 15.5961 2.65938 15.668C2.81982 15.7498 3.02984 15.7498 3.44988 15.7498H4.75282C4.93626 15.7498 5.02799 15.7498 5.1143 15.729C5.19083 15.7107 5.26399 15.6804 5.33109 15.6392C5.40678 15.5929 5.47164 15.528 5.60135 15.3983L9.43423 11.5654C9.61316 11.3865 9.70263 11.297 9.79345 11.2462C9.88807 11.1934 9.94589 11.1738 10.0532 11.1585C10.1562 11.1437 10.319 11.1656 10.6446 11.2094C10.8426 11.236 11.0446 11.2498 11.2499 11.2498Z" stroke="#2FB01A" stroke-width="1.5" stroke-linecap="round" stroke-linejoin="round"/>
</svg>
