<svg width="18" height="18" viewBox="0 0 18 18" fill="none" xmlns="http://www.w3.org/2000/svg">
<path d="M16.4999 8.24976V6.14976C16.4999 5.30968 16.4999 4.88964 16.3364 4.56877C16.1926 4.28653 15.9631 4.05706 15.6809 3.91325C15.36 3.74976 14.94 3.74976 14.0999 3.74976H3.89988C3.0598 3.74976 2.63976 3.74976 2.31889 3.91325C2.03665 4.05706 1.80718 4.28653 1.66337 4.56877C1.49988 4.88964 1.49988 5.30968 1.49988 6.14976V8.84976C1.49988 9.68983 1.49988 10.1099 1.66337 10.4307C1.80718 10.713 2.03665 10.9425 2.31889 11.0863C2.63976 11.2498 3.0598 11.2498 3.89988 11.2498H8.24988M8.99988 7.49976H9.00363M12.7499 7.49976H12.7536M5.24988 7.49976H5.25363M14.4374 12.7498V11.4373C14.4374 10.7124 13.8498 10.1248 13.1249 10.1248C12.4 10.1248 11.8124 10.7124 11.8124 11.4373V12.7498M9.18738 7.49976C9.18738 7.60331 9.10343 7.68726 8.99988 7.68726C8.89633 7.68726 8.81238 7.60331 8.81238 7.49976C8.81238 7.3962 8.89633 7.31226 8.99988 7.31226C9.10343 7.31226 9.18738 7.3962 9.18738 7.49976ZM12.9374 7.49976C12.9374 7.60331 12.8534 7.68726 12.7499 7.68726C12.6463 7.68726 12.5624 7.60331 12.5624 7.49976C12.5624 7.3962 12.6463 7.31226 12.7499 7.31226C12.8534 7.31226 12.9374 7.3962 12.9374 7.49976ZM5.43738 7.49976C5.43738 7.60331 5.35343 7.68726 5.24988 7.68726C5.14632 7.68726 5.06238 7.60331 5.06238 7.49976C5.06238 7.3962 5.14632 7.31226 5.24988 7.31226C5.35343 7.31226 5.43738 7.3962 5.43738 7.49976ZM11.6999 15.7498H14.5499C14.9699 15.7498 15.1799 15.7498 15.3404 15.668C15.4815 15.5961 15.5962 15.4814 15.6681 15.3402C15.7499 15.1798 15.7499 14.9698 15.7499 14.5498V13.9498C15.7499 13.5297 15.7499 13.3197 15.6681 13.1593C15.5962 13.0181 15.4815 12.9034 15.3404 12.8315C15.1799 12.7498 14.9699 12.7498 14.5499 12.7498H11.6999C11.2798 12.7498 11.0698 12.7498 10.9094 12.8315C10.7683 12.9034 10.6535 13.0181 10.5816 13.1593C10.4999 13.3197 10.4999 13.5297 10.4999 13.9498V14.5498C10.4999 14.9698 10.4999 15.1798 10.5816 15.3402C10.6535 15.4814 10.7683 15.5961 10.9094 15.668C11.0698 15.7498 11.2798 15.7498 11.6999 15.7498Z" stroke="#2FB01A" stroke-width="1.5" stroke-linecap="round" stroke-linejoin="round"/>
</svg>
