<svg width="15" height="15" viewBox="0 0 15 15" fill="none" xmlns="http://www.w3.org/2000/svg">
<path d="M6.875 8.12476V4.99976C6.875 4.834 6.80915 4.67502 6.69194 4.55781C6.57473 4.4406 6.41576 4.37476 6.25 4.37476C6.08424 4.37476 5.92527 4.4406 5.80806 4.55781C5.69085 4.67502 5.625 4.834 5.625 4.99976V8.74976C5.625 8.91552 5.69085 9.07449 5.80806 9.1917C5.92527 9.30891 6.08424 9.37476 6.25 9.37476H10C10.1658 9.37476 10.3247 9.30891 10.4419 9.1917C10.5592 9.07449 10.625 8.91552 10.625 8.74976C10.625 8.584 10.5592 8.42502 10.4419 8.30781C10.3247 8.1906 10.1658 8.12476 10 8.12476H6.875ZM3.75 1.24976H11.25C11.913 1.24976 12.5489 1.51315 13.0178 1.98199C13.4866 2.45083 13.75 3.08671 13.75 3.74976V11.2498C13.75 11.9128 13.4866 12.5487 13.0178 13.0175C12.5489 13.4864 11.913 13.7498 11.25 13.7498H3.75C3.08696 13.7498 2.45107 13.4864 1.98223 13.0175C1.51339 12.5487 1.25 11.9128 1.25 11.2498V3.74976C1.25 3.08671 1.51339 2.45083 1.98223 1.98199C2.45107 1.51315 3.08696 1.24976 3.75 1.24976V1.24976Z" fill="#2FB01A"/>
</svg>
