<svg width="23" height="22" viewBox="0 0 23 22" fill="none" xmlns="http://www.w3.org/2000/svg">
<path d="M6.69458 1.83337L15.8612 1.83337C16.5906 1.83337 17.2901 2.12311 17.8058 2.63883C18.3215 3.15456 18.6112 3.85403 18.6112 4.58337V17.4167C18.6112 18.1461 18.3215 18.8455 17.8058 19.3612C17.2901 19.877 16.5906 20.1667 15.8612 20.1667L6.69458 20.1667C5.96523 20.1667 5.26576 19.877 4.75004 19.3612C4.23431 18.8455 3.94458 18.1461 3.94458 17.4167L3.94458 4.58337C3.94458 3.85403 4.23431 3.15456 4.75004 2.63883C5.26576 2.12311 5.96523 1.83337 6.69458 1.83337V1.83337ZM6.69458 3.66671C6.45146 3.66671 6.21831 3.76328 6.0464 3.93519C5.87449 4.1071 5.77791 4.34026 5.77791 4.58337L5.77791 17.4167C5.77791 17.6598 5.87449 17.893 6.0464 18.0649C6.21831 18.2368 6.45146 18.3334 6.69458 18.3334L15.8612 18.3334C16.1044 18.3334 16.3375 18.2368 16.5094 18.0649C16.6813 17.893 16.7779 17.6598 16.7779 17.4167V4.58337C16.7779 4.34026 16.6813 4.1071 16.5094 3.93519C16.3375 3.76328 16.1044 3.66671 15.8612 3.66671L6.69458 3.66671ZM8.52791 4.58337L14.0279 4.58337C14.271 4.58337 14.5042 4.67995 14.6761 4.85186C14.848 5.02377 14.9446 5.25693 14.9446 5.50004C14.9446 5.74316 14.848 5.97631 14.6761 6.14822C14.5042 6.32013 14.271 6.41671 14.0279 6.41671L8.52791 6.41671C8.2848 6.41671 8.05164 6.32013 7.87973 6.14822C7.70782 5.97631 7.61125 5.74316 7.61125 5.50004C7.61125 5.25693 7.70782 5.02377 7.87973 4.85186C8.05164 4.67995 8.2848 4.58337 8.52791 4.58337ZM8.52791 15.5834L10.3612 15.5834C10.6044 15.5834 10.8375 15.68 11.0094 15.8519C11.1813 16.0238 11.2779 16.2569 11.2779 16.5C11.2779 16.7432 11.1813 16.9763 11.0094 17.1482C10.8375 17.3201 10.6044 17.4167 10.3612 17.4167H8.52791C8.2848 17.4167 8.05164 17.3201 7.87973 17.1482C7.70782 16.9763 7.61125 16.7432 7.61125 16.5C7.61125 16.2569 7.70782 16.0238 7.87973 15.8519C8.05164 15.68 8.2848 15.5834 8.52791 15.5834ZM8.52791 11.9167L14.0279 11.9167C14.271 11.9167 14.5042 12.0133 14.6761 12.1852C14.848 12.3571 14.9446 12.5903 14.9446 12.8334C14.9446 13.0765 14.848 13.3096 14.6761 13.4816C14.5042 13.6535 14.271 13.75 14.0279 13.75L8.52791 13.75C8.2848 13.75 8.05164 13.6535 7.87973 13.4816C7.70782 13.3096 7.61125 13.0765 7.61125 12.8334C7.61125 12.5903 7.70782 12.3571 7.87973 12.1852C8.05164 12.0133 8.2848 11.9167 8.52791 11.9167ZM8.52791 8.25004L14.0279 8.25004C14.271 8.25004 14.5042 8.34662 14.6761 8.51853C14.848 8.69043 14.9446 8.92359 14.9446 9.16671C14.9446 9.40982 14.848 9.64298 14.6761 9.81489C14.5042 9.9868 14.271 10.0834 14.0279 10.0834L8.52791 10.0834C8.2848 10.0834 8.05164 9.9868 7.87973 9.81489C7.70782 9.64298 7.61125 9.40982 7.61125 9.16671C7.61125 8.92359 7.70782 8.69043 7.87973 8.51853C8.05164 8.34662 8.2848 8.25004 8.52791 8.25004Z" fill=""/>
</svg>
