<svg width="22" height="23" viewBox="0 0 22 23" fill="none" xmlns="http://www.w3.org/2000/svg">
<path d="M12.6839 20.4447C12.5159 20.1458 12.2714 19.8971 11.9754 19.7241C11.6795 19.5511 11.3428 19.46 11 19.4602C10.2767 19.4602 9.64696 19.8571 9.31604 20.4447L7.11054 19.7874C7.17165 19.4322 7.13203 19.0669 6.99616 18.733C6.86029 18.3991 6.63361 18.1099 6.34181 17.8983C6.05001 17.6867 5.70476 17.561 5.34518 17.5355C4.98561 17.5101 4.62609 17.5858 4.30738 17.7542L2.83888 15.8641C3.04402 15.6138 3.1829 15.316 3.24274 14.998C3.30258 14.68 3.28144 14.3521 3.18128 14.0444C3.08112 13.7367 2.90516 13.4591 2.66959 13.2373C2.43403 13.0154 2.14643 12.8564 1.83329 12.7749L1.84063 9.75908C2.15227 9.67665 2.43828 9.51743 2.67251 9.29596C2.90675 9.0745 3.08174 8.79785 3.18148 8.49132C3.28123 8.18478 3.30255 7.85813 3.2435 7.54123C3.18446 7.22433 3.04691 6.92728 2.84346 6.67724L4.32388 4.78891C4.64128 4.9526 4.99788 5.025 5.35398 4.99804C5.71009 4.97108 6.05173 4.84583 6.34087 4.63622C6.63001 4.42661 6.8553 4.14087 6.99168 3.81081C7.12805 3.48075 7.17015 3.11931 7.11329 2.76674L9.32704 2.11133C9.4968 2.40461 9.74077 2.64805 10.0344 2.81716C10.3281 2.98628 10.6611 3.07512 11 3.07474C11.715 3.07474 12.3383 2.68883 12.6729 2.11133L14.8866 2.76674C14.8296 3.11938 14.8715 3.48094 15.0078 3.81115C15.1441 4.14135 15.3694 4.42724 15.6586 4.63697C15.9477 4.8467 16.2895 4.97204 16.6457 4.99903C17.0019 5.02602 17.3586 4.9536 17.676 4.78983L19.1565 6.67633C18.953 6.92637 18.8155 7.22341 18.7564 7.54031C18.6974 7.85722 18.7187 8.18386 18.8184 8.4904C18.9182 8.79694 19.0932 9.07358 19.3274 9.29505C19.5616 9.51651 19.8477 9.67574 20.1593 9.75816L20.1666 12.7758C19.8535 12.8574 19.5659 13.0164 19.3303 13.2382C19.0948 13.46 18.9188 13.7376 18.8186 14.0453C18.7185 14.353 18.6973 14.6809 18.7572 14.9989C18.817 15.3169 18.9559 15.6148 19.161 15.865L17.6916 17.7533C17.3729 17.5849 17.0134 17.5091 16.6538 17.5346C16.2942 17.5601 15.949 17.6857 15.6572 17.8974C15.3654 18.109 15.1387 18.3982 15.0028 18.7321C14.867 19.066 14.8273 19.4312 14.8885 19.7865L12.6848 20.4447L12.6839 20.4447ZM16.7933 15.6991C16.851 15.6991 16.9079 15.7009 16.9656 15.7037L17.0225 15.6303C16.8279 14.9163 16.8484 14.1608 17.0812 13.4584C17.3141 12.7559 17.749 12.1378 18.3315 11.6813L18.3296 10.8527C17.7496 10.3979 17.3161 9.78267 17.083 9.08347C16.85 8.38426 16.8276 7.63196 17.0188 6.92016L16.9491 6.83308C16.1217 6.8676 15.3059 6.62838 14.6282 6.15245C13.9504 5.67652 13.4484 4.99044 13.2 4.20041C12.5594 4.66132 11.79 4.90891 11.0009 4.90808C10.1924 4.90808 9.42879 4.65141 8.80088 4.20041C8.55242 4.99044 8.05045 5.67652 7.37268 6.15245C6.69492 6.62837 5.87916 6.8676 5.05171 6.83308L4.98296 6.92108C5.17345 7.63277 5.15077 8.38473 4.91774 9.08365C4.68471 9.78257 4.25159 10.3977 3.67213 10.8527L3.67029 11.6813C4.25289 12.1375 4.68789 12.7554 4.92075 13.4578C5.15361 14.1601 5.17398 14.9156 4.97929 15.6294L5.03613 15.7027C5.86615 15.665 6.68535 15.9028 7.36613 16.3791C8.04691 16.8555 8.55103 17.5436 8.79996 18.3363C9.44071 17.875 10.2104 17.6271 11 17.6277C11.8085 17.6277 12.573 17.8853 13.2 18.3363C13.4403 17.5718 13.9183 16.9039 14.5644 16.4298C15.2105 15.9556 15.991 15.7 16.7924 15.7L16.7933 15.6991ZM7.33329 11.278C7.33329 10.3055 7.7196 9.3729 8.40723 8.68527C9.09487 7.99764 10.0275 7.61133 11 7.61133C11.9724 7.61133 12.9051 7.99764 13.5927 8.68527C14.2803 9.3729 14.6666 10.3055 14.6666 11.278C14.6666 12.2505 14.2803 13.1831 13.5927 13.8707C12.9051 14.5584 11.9724 14.9447 11 14.9447C10.0275 14.9447 9.09487 14.5584 8.40723 13.8707C7.7196 13.1831 7.33329 12.2505 7.33329 11.278ZM9.16663 11.278C9.16663 11.7642 9.35978 12.2305 9.7036 12.5744C10.0474 12.9182 10.5137 13.1113 11 13.1113C11.4862 13.1113 11.9525 12.9182 12.2963 12.5744C12.6401 12.2305 12.8333 11.7642 12.8333 11.278C12.8333 10.7918 12.6401 10.3254 12.2963 9.98163C11.9525 9.63782 11.4862 9.44466 11 9.44466C10.5137 9.44466 10.0474 9.63782 9.7036 9.98163C9.35978 10.3254 9.16663 10.7918 9.16663 11.278Z" fill=""/>
</svg>
