<svg width="16" height="16" viewBox="0 0 16 16" fill="none" xmlns="http://www.w3.org/2000/svg">
<g clip-path="url(#clip0_524_7531)">
<path d="M4.66659 14.6668V7.3335M1.33325 8.66683V13.3335C1.33325 14.0699 1.93021 14.6668 2.66659 14.6668H11.6174C12.6046 14.6668 13.4441 13.9466 13.5942 12.9709L14.3121 8.30428C14.4985 7.09276 13.5611 6.00016 12.3354 6.00016H9.99992C9.63173 6.00016 9.33325 5.70169 9.33325 5.3335V2.97739C9.33325 2.06949 8.59726 1.3335 7.68936 1.3335C7.47281 1.3335 7.27657 1.46103 7.18862 1.65891L4.84254 6.93759C4.73554 7.17834 4.4968 7.3335 4.23334 7.3335H2.66659C1.93021 7.3335 1.33325 7.93045 1.33325 8.66683Z" stroke="white" stroke-width="1.33333" stroke-linecap="round" stroke-linejoin="round"/>
</g>
<defs>
<clipPath id="clip0_524_7531">
<rect width="16" height="16" fill="white"/>
</clipPath>
</defs>
</svg>
