<svg width="26" height="26" viewBox="0 0 26 26" fill="none" xmlns="http://www.w3.org/2000/svg">
<g clip-path="url(#clip0_241_3826)">
<path d="M16.6263 14.9131L11.4273 21.3189L9.58132 19.8206C9.73775 19.382 9.75427 18.9057 9.62861 18.4572C9.50295 18.0088 9.2413 17.6104 8.87971 17.317C8.51813 17.0235 8.07442 16.8494 7.60975 16.8187C7.14508 16.788 6.68232 16.9022 6.28527 17.1455L4.43925 15.6473L9.63818 9.24156L11.9675 11.1321C12.122 11.2574 12.3199 11.3163 12.5177 11.2957C12.7156 11.2751 12.8972 11.1768 13.0225 11.0224C13.1479 10.8679 13.2067 10.67 13.1861 10.4722C13.1656 10.2743 13.0672 10.0927 12.9128 9.96739L10.5834 8.07688L13.8918 4.00049L15.7379 5.49872C15.5814 5.93735 15.5649 6.4137 15.6906 6.86211C15.8162 7.31052 16.0779 7.70891 16.4395 8.00238C16.8011 8.29584 17.2448 8.46992 17.7094 8.50062C18.1741 8.53133 18.6369 8.41714 19.0339 8.17381L20.8799 9.67205L17.5715 13.7484L15.2422 11.8579C15.0877 11.7326 14.8898 11.6737 14.692 11.6943C14.4941 11.7149 14.3125 11.8132 14.1872 11.9676C14.0618 12.1221 14.003 12.32 14.0236 12.5178C14.0441 12.7157 14.1425 12.8972 14.2969 13.0226L16.6263 14.9131Z" fill="white"/>
</g>
<defs>
<clipPath id="clip0_241_3826">
<rect width="18" height="18" fill="white" transform="translate(11.343) rotate(39.0629)"/>
</clipPath>
</defs>
</svg>
