<svg width="16" height="16" viewBox="0 0 16 16" fill="none" xmlns="http://www.w3.org/2000/svg">
<path d="M5.33337 2.66659C5.15656 2.66659 4.98699 2.73682 4.86197 2.86185C4.73695 2.98687 4.66671 3.15644 4.66671 3.33325V13.3333L6.65204 11.5219C7.0205 11.1857 7.50127 10.9994 8.00004 10.9994C8.49881 10.9994 8.97958 11.1857 9.34804 11.5219L11.3334 13.3333V3.33325C11.3334 3.15644 11.2631 2.98687 11.1381 2.86185C11.0131 2.73682 10.8435 2.66659 10.6667 2.66659H5.33337ZM5.33337 1.33325H10.6667C11.1971 1.33325 11.7058 1.54397 12.0809 1.91904C12.456 2.29411 12.6667 2.80282 12.6667 3.33325V13.3333C12.6666 13.5917 12.5915 13.8446 12.4503 14.0612C12.3091 14.2777 12.108 14.4485 11.8715 14.5528C11.635 14.6572 11.3733 14.6905 11.1182 14.6488C10.8631 14.6071 10.6257 14.4921 10.4347 14.3179L8.44937 12.5066C8.32655 12.3945 8.1663 12.3324 8.00004 12.3324C7.83378 12.3324 7.67353 12.3945 7.55071 12.5066L5.56537 14.3179C5.37442 14.4921 5.13695 14.6071 4.88185 14.6488C4.62675 14.6905 4.36503 14.6572 4.12854 14.5528C3.89204 14.4485 3.69098 14.2777 3.5498 14.0612C3.40863 13.8446 3.33343 13.5917 3.33337 13.3333V3.33325C3.33337 2.80282 3.54409 2.29411 3.91916 1.91904C4.29423 1.54397 4.80294 1.33325 5.33337 1.33325V1.33325ZM6.00004 6.66659H10C10.1769 6.66659 10.3464 6.73682 10.4714 6.86185C10.5965 6.98687 10.6667 7.15644 10.6667 7.33325C10.6667 7.51006 10.5965 7.67963 10.4714 7.80466C10.3464 7.92968 10.1769 7.99992 10 7.99992H6.00004C5.82323 7.99992 5.65366 7.92968 5.52864 7.80466C5.40361 7.67963 5.33337 7.51006 5.33337 7.33325C5.33337 7.15644 5.40361 6.98687 5.52864 6.86185C5.65366 6.73682 5.82323 6.66659 6.00004 6.66659Z" fill="#2FB01A"/>
</svg>
