<svg width="25" height="24" viewBox="0 0 25 24" fill="none" xmlns="http://www.w3.org/2000/svg">
<path d="M12.5 20C14.6217 20 16.6566 19.1571 18.1569 17.6569C19.6571 16.1566 20.5 14.1217 20.5 12C20.5 9.87827 19.6571 7.84344 18.1569 6.34315C16.6566 4.84285 14.6217 4 12.5 4C10.3783 4 8.34344 4.84285 6.84315 6.34315C5.34285 7.84344 4.5 9.87827 4.5 12C4.5 14.1217 5.34285 16.1566 6.84315 17.6569C8.34344 19.1571 10.3783 20 12.5 20ZM12.5 22C6.977 22 2.5 17.523 2.5 12C2.5 6.477 6.977 2 12.5 2C18.023 2 22.5 6.477 22.5 12C22.5 17.523 18.023 22 12.5 22Z" fill="#2FB01A"/>
<path d="M17.5 8.94701C17.132 9.10701 16.737 9.21701 16.322 9.26501C16.746 9.01501 17.07 8.61901 17.224 8.14801C16.82 8.38348 16.3791 8.54913 15.92 8.63801C15.7269 8.43558 15.4945 8.27462 15.2372 8.16493C14.9798 8.05524 14.7028 7.99913 14.423 8.00001C13.29 8.00001 12.372 8.90501 12.372 10.02C12.372 10.178 12.39 10.332 12.425 10.48C11.6123 10.4414 10.8166 10.2339 10.0886 9.87056C9.36068 9.50726 8.71643 8.99621 8.197 8.37001C8.01456 8.67711 7.91851 9.02781 7.919 9.38501C7.919 10.085 8.282 10.705 8.832 11.066C8.50644 11.0558 8.18786 10.9691 7.902 10.813V10.838C7.90509 11.3075 8.0708 11.7613 8.37092 12.1224C8.67103 12.4834 9.087 12.7292 9.548 12.818C9.24536 12.898 8.92869 12.9096 8.621 12.852C8.75513 13.2559 9.01167 13.608 9.35502 13.8594C9.69837 14.1108 10.1115 14.2491 10.537 14.255C9.80696 14.8176 8.91064 15.1215 7.989 15.119C7.824 15.119 7.661 15.109 7.5 15.091C8.44047 15.6863 9.53096 16.0016 10.644 16C14.418 16 16.481 12.922 16.481 10.252L16.474 9.99001C16.8763 9.70729 17.2239 9.3539 17.5 8.94701Z" fill="#2FB01A"/>
</svg>
