<svg width="23" height="22" viewBox="0 0 23 22" fill="none" xmlns="http://www.w3.org/2000/svg">
<path d="M11.6115 20.1668C6.54874 20.1668 2.44482 16.0629 2.44482 11.0002C2.44482 5.93741 6.54874 1.8335 11.6115 1.8335C16.6742 1.8335 20.7782 5.93741 20.7782 11.0002C20.7782 16.0629 16.6742 20.1668 11.6115 20.1668ZM11.6115 18.3335C13.5564 18.3335 15.4217 17.5609 16.7969 16.1856C18.1722 14.8103 18.9448 12.9451 18.9448 11.0002C18.9448 9.05524 18.1722 7.18998 16.7969 5.81471C15.4217 4.43945 13.5564 3.66683 11.6115 3.66683C9.66657 3.66683 7.80131 4.43945 6.42604 5.81471C5.05077 7.18998 4.27816 9.05524 4.27816 11.0002C4.27816 12.9451 5.05077 14.8103 6.42604 16.1856C7.80131 17.5609 9.66657 18.3335 11.6115 18.3335ZM11.6115 5.50016C12.584 5.50016 13.5166 5.88647 14.2042 6.5741C14.8918 7.26174 15.2782 8.19437 15.2782 9.16683V11.0002C15.2782 11.9726 14.8918 12.9053 14.2042 13.5929C13.5166 14.2805 12.584 14.6668 11.6115 14.6668C10.639 14.6668 9.7064 14.2805 9.01877 13.5929C8.33113 12.9053 7.94482 11.9726 7.94482 11.0002L7.94482 9.16683C7.94482 8.19437 8.33113 7.26174 9.01877 6.5741C9.7064 5.88647 10.639 5.50016 11.6115 5.50016ZM11.6115 7.3335C11.1253 7.3335 10.6589 7.52665 10.3151 7.87047C9.97131 8.21428 9.77816 8.6806 9.77816 9.16683L9.77816 11.0002C9.77816 11.4864 9.97131 11.9527 10.3151 12.2965C10.6589 12.6403 11.1253 12.8335 11.6115 12.8335C12.0977 12.8335 12.564 12.6403 12.9079 12.2965C13.2517 11.9527 13.4448 11.4864 13.4448 11.0002V9.16683C13.4448 8.6806 13.2517 8.21428 12.9079 7.87047C12.564 7.52665 12.0977 7.3335 11.6115 7.3335ZM7.86232 17.3032C7.33431 16.9886 6.84775 16.6092 6.41399 16.1738C6.95847 15.534 7.65243 15.0384 8.43432 14.731C8.54702 14.6829 8.66822 14.6579 8.79075 14.6575C8.91328 14.657 9.03465 14.6811 9.1477 14.7284C9.26074 14.7757 9.36316 14.8451 9.44891 14.9327C9.53465 15.0202 9.60197 15.124 9.6469 15.238C9.69182 15.352 9.71344 15.4739 9.71046 15.5964C9.70749 15.7189 9.67999 15.8395 9.62958 15.9512C9.57918 16.0629 9.5069 16.1633 9.41701 16.2466C9.32712 16.3299 9.22145 16.3943 9.10624 16.436C8.61857 16.6285 8.19599 16.9292 7.86141 17.3032H7.86232ZM15.3277 17.3233C14.9727 16.9307 14.5298 16.6279 14.0352 16.4397C13.9192 16.3994 13.8126 16.3363 13.7215 16.2541C13.6304 16.1719 13.5567 16.0722 13.5049 15.961C13.453 15.8498 13.424 15.7293 13.4196 15.6067C13.4152 15.4841 13.4354 15.3618 13.4791 15.2472C13.5228 15.1325 13.5891 15.0278 13.674 14.9392C13.7589 14.8507 13.8608 14.7801 13.9735 14.7316C14.0862 14.6831 14.2075 14.6577 14.3302 14.657C14.4529 14.6563 14.5745 14.6802 14.6878 14.7273C15.498 15.0354 16.2179 15.5419 16.7815 16.2004C16.3457 16.6339 15.8572 17.0112 15.3277 17.3233Z" fill=""/>
</svg>
