<svg width="20" height="21" viewBox="0 0 20 21" fill="none" xmlns="http://www.w3.org/2000/svg">
<path d="M12.3732 4.02303V7.1897H11.1232V4.02303C11.1232 3.79803 10.9232 3.6897 10.7899 3.6897C10.7482 3.6897 10.7065 3.69803 10.6649 3.7147L4.05654 6.20636C3.61488 6.37303 3.33154 6.7897 3.33154 7.2647V7.82303C2.57321 8.3897 2.08154 9.29803 2.08154 10.323V7.2647C2.08154 6.27303 2.68988 5.3897 3.61488 5.0397L10.2315 2.5397C10.4149 2.47303 10.6065 2.4397 10.7899 2.4397C11.6232 2.4397 12.3732 3.1147 12.3732 4.02303Z" fill="white"/>
<path d="M17.9201 12.8134V13.6467C17.9201 13.8717 17.7451 14.0551 17.5117 14.0634H16.2951C15.8534 14.0634 15.4534 13.7384 15.4201 13.3051C15.3951 13.0467 15.4951 12.8051 15.6617 12.6384C15.8117 12.4801 16.0201 12.3967 16.2451 12.3967H17.5034C17.7451 12.4051 17.9201 12.5884 17.9201 12.8134Z" fill="white"/>
<path d="M16.2315 11.5223H17.0815C17.5399 11.5223 17.9149 11.1473 17.9149 10.689V10.3223C17.9149 8.5973 16.5065 7.18896 14.7815 7.18896H5.21488C4.50654 7.18896 3.85654 7.4223 3.33154 7.8223C2.57321 8.38897 2.08154 9.2973 2.08154 10.3223V15.9306C2.08154 17.6556 3.48988 19.064 5.21488 19.064H14.7815C16.5065 19.064 17.9149 17.6556 17.9149 15.9306V15.7723C17.9149 15.314 17.5399 14.939 17.0815 14.939H16.3565C15.5565 14.939 14.7899 14.4473 14.5815 13.6723C14.4065 13.039 14.6149 12.4306 15.0315 12.0223C15.3399 11.7056 15.7649 11.5223 16.2315 11.5223ZM11.6649 11.3556H5.83154C5.48988 11.3556 5.20654 11.0723 5.20654 10.7306C5.20654 10.389 5.48988 10.1056 5.83154 10.1056H11.6649C12.0065 10.1056 12.2899 10.389 12.2899 10.7306C12.2899 11.0723 12.0065 11.3556 11.6649 11.3556Z" fill="white"/>
</svg>
