<svg width="16" height="17" viewBox="0 0 16 17" fill="none" xmlns="http://www.w3.org/2000/svg">
<path d="M11.6656 9.63145C11.467 9.53178 10.4879 9.04946 10.3055 8.98354C10.123 8.91682 9.99035 8.88387 9.85771 9.08322C9.72507 9.28178 9.34324 9.73113 9.22668 9.86377C9.11093 9.99641 8.99437 10.0125 8.79582 9.9128C8.20904 9.6792 7.66745 9.34516 7.19533 8.92567C6.7599 8.52318 6.3866 8.05831 6.08762 7.54625C5.97186 7.34689 6.07556 7.23917 6.17524 7.1403C6.26447 7.05107 6.3746 6.90798 6.47347 6.79142C6.55536 6.6908 6.62249 6.57901 6.67283 6.45943C6.69931 6.40448 6.71165 6.34378 6.7087 6.28285C6.70575 6.22192 6.68761 6.16269 6.65595 6.11055C6.60611 6.01088 6.2082 5.03097 6.0426 4.63226C5.88103 4.2448 5.71704 4.29705 5.59405 4.29062C5.47829 4.28499 5.34566 4.28338 5.21302 4.28338C5.11212 4.2862 5.0129 4.30986 4.9216 4.35289C4.83029 4.39591 4.74887 4.45737 4.68247 4.53338C4.45741 4.74652 4.27921 5.00419 4.15922 5.28998C4.03922 5.57578 3.98007 5.88344 3.98553 6.19335C4.05008 6.94434 4.33254 7.66014 4.79823 8.25284C5.65186 9.53262 6.82365 10.5684 8.19855 11.2585C8.56942 11.4178 8.94827 11.5578 9.3336 11.6781C9.73982 11.8014 10.1692 11.8281 10.5876 11.7561C10.8647 11.6999 11.1271 11.5869 11.3583 11.4242C11.5896 11.2615 11.7845 11.0526 11.9309 10.8107C12.0614 10.5132 12.1017 10.1839 12.0466 9.86377C11.9976 9.78017 11.8649 9.73113 11.6656 9.63145ZM13.6688 2.33323C12.3022 0.966949 10.4857 0.143845 8.55739 0.0171531C6.62911 -0.109539 4.7205 0.468816 3.18688 1.64454C1.65327 2.82027 0.599162 4.51324 0.220815 6.40828C-0.157533 8.30331 0.165661 10.2713 1.13022 11.9458L0 16.0736L4.22347 14.9667C5.3916 15.6027 6.70047 15.936 8.03054 15.9361H8.03376C9.6094 15.9353 11.1494 15.4675 12.4593 14.5918C13.7692 13.7161 14.7902 12.4718 15.3932 11.0162C15.9962 9.56048 16.1542 7.95873 15.8473 6.41327C15.5404 4.86782 14.7823 3.44801 13.6688 2.33323ZM11.5522 13.5784C10.4977 14.2394 9.27835 14.5901 8.03376 14.5904H8.03054C6.84477 14.5904 5.68085 14.2714 4.66077 13.6668L4.41881 13.5237L1.91238 14.1813L2.58119 11.7376L2.42444 11.4868C1.72873 10.3773 1.37764 9.08646 1.41554 7.77748C1.45345 6.46849 1.87866 5.20013 2.6374 4.1328C3.39613 3.06547 4.45433 2.24709 5.67817 1.78115C6.90201 1.31521 8.23653 1.22264 9.51299 1.51514C10.7894 1.80763 11.9505 2.47207 12.8493 3.42442C13.7482 4.37677 14.3444 5.57427 14.5627 6.86549C14.781 8.1567 14.6115 9.48365 14.0756 10.6785C13.5398 11.8734 12.6616 12.8826 11.5522 13.5784Z" fill="white"/>
</svg>
